<?xml version="1.0" encoding="utf-8"?>
<!-- Generator: Adobe Illustrator 18.1.1, SVG Export Plug-In . SVG Version: 6.00 Build 0)  -->
<svg version="1.1" id="Layer_1" xmlns="http://www.w3.org/2000/svg" xmlns:xlink="http://www.w3.org/1999/xlink" x="0px" y="0px"
	 width="1400px" height="980px" viewBox="0 0 1400 980" enable-background="new 0 0 1400 980" xml:space="preserve">
<g>
	<rect fill-rule="evenodd" clip-rule="evenodd" fill="#FFFFCC" width="1400" height="980"/>
</g>
<g>
	<path fill="#663300" d="M950.7,838.9c4.5-10,11.4-17,18.5-24.1c6.4-6.5,13-13.1,18-22.3c6.1-11.5,16-13.8,29-16.8
		c6.9-1.6,14.6-3.4,23.2-6.9c13.1-5.4,25.2-0.8,40.5,4.9c8.6,3.3,18.3,6.9,29.8,9.2c28.4,5.9,36.5,17.1,45.7,30
		c4.8,6.6,9.8,13.6,18.3,20.5c8.3,6.8,7.2,14.8,5.7,24.8c-1.4,9.8-3,21.7,4.3,36.4c8.7,17.2-18,80-43.8,65.6
		c-6.1-3.4-12.5-9.6-20.5-17.2c-14.7-14.1-34.5-33.1-65.1-46.9c-31.4-14.1-58.8-15.7-78.4-16.9C945.8,877.3,934.2,875.5,950.7,838.9
		L950.7,838.9z M1084.4,881.1c2.8-2.4,8.3,3.5,3.1,5.4C1084.4,887.5,1082.2,882.9,1084.4,881.1L1084.4,881.1z M1086.7,884.1
		c1.2-0.4-0.4-1.1-0.7-1.2c0,0,0,0,0,0l0,0l0,0C1086,883.2,1086.2,884.3,1086.7,884.1L1086.7,884.1z M1086,882.9L1086,882.9
		L1086,882.9L1086,882.9L1086,882.9z M1062,833.1c0.6-0.1,1.6-0.5,1.6-1.2c0-0.7-0.8-0.7-1.5-0.8c-1.3-0.2-2.6-0.6-1.7,1.5
		C1060.7,833.3,1061.3,833.2,1062,833.1L1062,833.1z M1062.5,835.5c-1.9,0.5-3.7-0.1-4.4-2c-1.5-3.8,1.3-5.5,4.5-4.8
		c1.9,0.4,3.4,1.1,3.4,3.2C1066.1,833.9,1064.4,835,1062.5,835.5L1062.5,835.5z M1041.1,847.8c-2.1,1-2.4,3.4-3.7,5
		c-2.4,2.9-8.3-0.3-3.3-6.5c1.5-1.8,3-3.3,4.5-5.1c5-6.2,6.5-8.3,10.9-1.8c1,1.5,1.8,3.2,1.9,4.3c0.3,3.7-3.4,3.6-5.9,3.5
		C1043.9,847.3,1042.2,847.3,1041.1,847.8L1041.1,847.8z M1040,845.6c1.6-0.8,3.6-0.8,5.5-0.8c0.7,0,3.6,0.2,3.5-0.8
		c-0.1-0.7-0.7-2-1.5-3.2c-3.4-5.1-2.8-3.2-6.9,2c-1.5,1.9-3,3.3-4.5,5.1c-2.4,3-0.9,3.8-0.6,3.4
		C1037.1,849.2,1037,847.1,1040,845.6L1040,845.6z M1050.9,873.9c0.4,0.6,1.1,1.5,1.9,1.2c0.8-0.3,0.5-1.1,0.3-1.8
		c-0.3-1.7-0.6-2.8-2.3-1.2C1050.2,872.6,1050.5,873.3,1050.9,873.9L1050.9,873.9z M1048.9,875.3c-1.2-1.7-1.3-3.6,0.3-5.1
		c2.8-2.6,5.7-1.5,6.4,2.6c0.3,2,0.3,3.7-1.9,4.6C1051.8,878.2,1050,877,1048.9,875.3L1048.9,875.3z M1093.4,862.9
		c4,0.5,10.9-4.1,9.5-8.7c-1.3-4.1-9.9-4.8-13.5-5.4c-3.1-0.5-5.7-0.9-5.7-0.8c-0.6,0.7-3.4,2.7-3.2,3.2
		C1081.2,854.1,1090.5,862.6,1093.4,862.9L1093.4,862.9z M1093.1,865.4c-4-0.5-14.1-9.7-15-13.6c-0.7-2.8,2.3-3.6,3.6-5.3
		c0.8-1,4.2-0.8,8.1-0.1c5.2,0.9,13.5,1.2,15.4,7.1C1107.3,859.9,1098.9,866,1093.1,865.4L1093.1,865.4z M1115.5,896.5
		c-0.1,3.2-2,3.9-3.1,6.1c-0.5,0.9,2.9,0.6,3.5,0.4c3.5-1.4,2.8-4.2,2.3-7.4c-0.8-4.9-0.5-3.3-3-6.1c-0.7-0.7-2.7-2.6-1.9,0
		C1114,891.8,1115.6,894,1115.5,896.5L1115.5,896.5z M1113,896.4c0.1-1.7-1.5-4.3-2.1-6.1c-1.5-4.7,2.7-6,6.1-2.4
		c2.5,2.7,2.8,2.5,3.6,7.3c0.8,4.6,1,8.2-3.7,10.1c-2.7,1.1-8.7,0.2-6.7-3.8C1111,899.8,1112.9,898.5,1113,896.4L1113,896.4z
		 M1004.2,859.6c-0.1,1.6,0.6,3.3,1.6,4.8c1.7,2.5,4.5,5.3,7.7,4c3.5-1.4,2.8-4.2,2.2-7.4c-0.8-4.9-0.5-3.3-3-6.1
		C1009.6,851.4,1004.3,857.4,1004.2,859.6L1004.2,859.6z M1003.8,865.8c-1.3-1.9-2.1-4.1-2-6.3c0.2-4.1,7.9-11.7,12.8-6.2
		c2.5,2.7,2.8,2.5,3.6,7.3c0.8,4.6,1,8.2-3.8,10.1C1010.1,872.4,1006.2,869.3,1003.8,865.8L1003.8,865.8z M987.5,851.2
		c2.8-6.2,7.3-10.4,12-14.6c4.2-3.8,8.4-7.7,11.4-13.2c4-7.2,10.7-8.3,19.7-9.8c4.6-0.8,9.9-1.6,15.6-3.5c8.9-2.9,17.4,0.3,28.1,4.4
		c6,2.3,12.8,4.9,20.7,6.8c19.7,4.7,25.7,12,32.5,20.4c3.5,4.3,7.2,8.9,13.2,13.4c6.1,4.6,5.6,9.7,4.9,16.1
		c-0.6,6-1.4,13.3,4.1,22.6c7,11.8-10.4,50.7-28.9,40.1c-4.1-2.4-8.6-6.4-14.1-11.2c-10.6-9.3-24.7-21.9-46.2-31.5
		c-22-9.8-40.8-11.8-54.3-13.2c-7.6-0.8-13.5-1.4-17.5-3.2C982.1,871.6,981,865.6,987.5,851.2L987.5,851.2z M1001.2,838.4
		c-4.5,4.1-8.9,8.1-11.4,13.8c-5.7,12.7-5.1,17.8,0.1,20.2c3.6,1.6,9.3,2.2,16.7,3c13.6,1.4,32.7,3.4,55,13.4
		c21.8,9.8,36.1,22.4,46.8,31.9c5.4,4.8,9.8,8.7,13.7,10.9c15.6,8.9,31.5-26.5,25.5-36.7c-5.9-9.9-5.1-17.7-4.4-24.1
		c0.6-5.6,1-10-4-13.8c-6.2-4.8-10-9.5-13.6-13.8c-6.5-8.1-12.2-15.1-31.2-19.5c-8-1.9-14.9-4.6-21-6.9c-10.3-3.9-18.4-7-26.5-4.4
		c-5.9,2-11.3,2.9-16,3.6c-8.3,1.4-14.6,2.5-18,8.6C1009.9,830.3,1005.5,834.4,1001.2,838.4L1001.2,838.4z M970.9,816.5
		c-6.9,7-13.7,13.8-18,23.4c-15.4,34.4-5.4,35.1,23.2,36.8c19.8,1.2,47.5,2.8,79.3,17.1c31,13.9,51,33.1,65.8,47.3
		c7.8,7.5,14.2,13.7,19.9,16.8c22.2,12.4,48.3-46.7,40.4-62.4c-7.7-15.3-6-27.6-4.5-37.8c1.3-9.2,2.3-16.6-4.9-22.5
		c-8.7-7.1-13.9-14.3-18.7-21c-9-12.4-16.8-23.3-44.2-29c-11.6-2.4-21.4-6.1-30.1-9.4c-14.8-5.5-26.5-9.9-38.7-4.9
		c-8.7,3.6-16.6,5.4-23.6,7c-12.5,2.9-21.8,5.1-27.4,15.6C984.2,803.1,977.5,809.9,970.9,816.5L970.9,816.5z"/>
	<path fill="#663300" d="M396.5,353.2c-22.9-21.5-23.8-40.4-25-64.4c-0.1-2.6-0.3-5.2-0.4-7.7c-0.6-9.6,5-16.4,12-25
		c4-4.8,8.4-10.2,12.4-16.9c2.7-4.6,6-8.5,9.8-11.9c11.7-10.6,28-15.8,44.7-16.5c16.6-0.7,33.6,3.2,46.6,11c5,3,9.4,6.5,13.1,10.5
		c12.4,13.7,12.6,20.7,5.8,26.8c-3.5,3.2-8.9,6-15.5,9.4c-12.2,6.3-28.6,14.7-44,31.1c-15.8,16.9-22.8,34-27.8,46.2
		c-2.8,6.9-5.1,12.3-7.9,15.4C415.4,366.4,409.2,365,396.5,353.2L396.5,353.2z M409.9,319.7c-1,1.1-1,3.1-0.4,4.5
		c0.4,0.9,1.9,1.3,2.7,0.9c0.8-0.4,2.3-3,2.1-3.6c-0.2-0.7,0.1-1.7-0.6-2C412.6,319,410.8,318.7,409.9,319.7L409.9,319.7z
		 M481.7,261.4c-1,1.1-1,3.1-0.4,4.4c0.3,0.9,1.9,1.3,2.7,0.9c0.8-0.4,2.2-3,2.1-3.6c-0.2-0.7,0.1-1.7-0.5-1.9
		C484.3,260.7,482.6,260.5,481.7,261.4L481.7,261.4z M423.9,261.9c-1,1.1-1,3.1-0.4,4.4c0.3,0.9,1.9,1.3,2.7,0.9
		c0.8-0.4,2.2-3,2.1-3.6c-0.2-0.6,0.1-1.7-0.5-1.9C426.6,261.2,424.8,260.9,423.9,261.9L423.9,261.9z M413.4,307.2
		c0.9,0.4,2.2-0.1,2.9-0.8c0.5-0.5,0.4-1.5-0.1-1.9c-0.5-0.4-2.4-0.7-2.8-0.5c-0.3,0.3-1.1,0.4-1.1,0.8
		C412.4,305.7,412.6,306.9,413.4,307.2L413.4,307.2z M457.8,247c0.6,4.7-3.4,9-7.4,11.6c-2.6,1.6,2.6-7.1,1.2-9.8
		c-1.3-2.5-14.4-6.5-12.9-7.7c1.7-1.3,7.1-2.9,9.2-2.5C451.8,239.5,457.3,242.9,457.8,247L457.8,247z M451.9,295.4
		c4.1-0.7,4.7-7.3,8.5-9c7.8-3.6,3-10.2-4.4-6.5c-6.7,3.4-17,7.4-19.3,2.2c-0.7-1.7-3,3.6-2.1,5.1
		C436.4,290.3,448.4,296,451.9,295.4L451.9,295.4z M406.3,351c-1.9-6.1-10.6,1.5-5.3-18.6c6.3-23.9-24.8,1.5-7.8-28.5
		c9.9-17.5-13.3-8.4-6.6-28.5c4.7-14,18-5.5,19.6-26.6c1.7-23.1,21.7-5.7,25.7-20.3c1.2-4.3,4.1-4.6,8.1-4.5c1.4,0,3.5,0.8,2.6-0.9
		c-2.8-5.1-4.2-5.1-6.8-2.6c-15.3,14.7-28.8,2-33.1,18.2c-4,15.2-8.5,24.1-13.2,26.4c-8.7,4.4-16.2,8-0.8,29
		c5.8,7.9-8.5,25,1.5,29.3c11.6,5-5.8,11.9,12.8,29.3C409.3,358.7,406.4,351.2,406.3,351L406.3,351z M475.7,233.7
		c5.9,19.5,16-15,27.3,11.3c1.4,3.3,2,9,5.5,8.9c3.5-0.1-3-37.1-23.1-23.7c-0.9,0.6-4,2.6-4.6,2.9c-4,1.5,1.1-10.6-11.5-14
		c-2-0.6-17-3.1-18.8-0.1C446.4,225.9,470.3,216,475.7,233.7L475.7,233.7z M455.9,276.8c-0.4,0.5-1.3,0.5-1.9,0.3
		c-0.4-0.1-0.6-0.8-0.5-1.1c0.2-0.4,1.2-1.1,1.5-1c0.3,0.1,0.7-0.1,0.8,0.2C456.1,275.7,456.3,276.4,455.9,276.8L455.9,276.8z
		 M417.5,281.6c0.4-0.5,0.4-1.3,0.2-1.9c-0.2-0.4-0.8-0.6-1.2-0.4c-0.3,0.2-0.9,1.3-0.9,1.5c0.1,0.3,0,0.7,0.2,0.8
		C416.3,281.9,417.1,282,417.5,281.6L417.5,281.6z M421.4,296.8c0.2,1.9,2.8,2.5,1.2,3.5c-1,0.6-2.1-1.6-2.6-2.6
		c-0.5-1-2.6-3.8-2-4.2c0.7-0.5,2.8-1.2,3.6-0.9C423.1,292.8,421.2,295.2,421.4,296.8L421.4,296.8z M439.9,297.4
		c0.9,0.4,2.1-0.1,2.9-0.8c0.5-0.5,0.4-1.5-0.1-1.9c-0.4-0.4-2.4-0.7-2.7-0.4c-0.4,0.2-1.1,0.4-1.1,0.8
		C438.8,296,439.1,297.2,439.9,297.4L439.9,297.4z M444.1,267.6c1.2-2.5,0.1-6-1.6-8.1c-1.1-1.3-4-1.4-5.2-0.1
		c-1.2,1.1-6.9,10.4-6.3,11.3c0.7,1,0.7,3,2,3.1C435.3,273.9,443,269.7,444.1,267.6L444.1,267.6z M469.2,261.3c2.6,1,2.6,4.9,4.5,3
		c1.2-1.2,1-4.1-0.2-5.2c-1.2-1.1-6.8-1.9-7.6-1.2c-1,0.7-2.9,1-3,2.2C462.9,262.3,467,260.4,469.2,261.3L469.2,261.3z M421.4,324.1
		c2.6,1,5.9-0.3,7.9-2.2c1.2-1.2,1-4.1-0.3-5.2c-1.2-1.1-6.7-1.9-7.6-1.2c-1,0.7-2.9,1-3,2.2C418.5,320,419.2,323.2,421.4,324.1
		L421.4,324.1z M374,288.7c1.1,23.4,2,41.9,24.2,62.7c11.3,10.6,16.6,12.1,20.3,8.1c2.6-2.7,4.7-8,7.5-14.6
		c5.1-12.4,12.2-29.7,28.3-46.9c15.7-16.8,32.2-25.3,44.6-31.7c6.5-3.3,11.8-6,15-9c5.5-5,5-11.1-6-23.4c-3.5-3.9-7.7-7.2-12.5-10.1
		c-12.7-7.6-29.2-11.3-45.3-10.7c-16.1,0.7-31.8,5.7-43.1,15.9c-3.6,3.3-6.8,7-9.3,11.3c-4.1,6.9-8.6,12.3-12.6,17.2
		c-6.7,8.2-12,14.6-11.5,23.3C373.8,283.7,373.9,286.2,374,288.7L374,288.7z"/>
	<path fill="#663300" d="M675.5,503.6c11,0,20.1,3.5,29.6,7c8.5,3.2,17.3,6.5,27.6,7.2c12.9,0.9,19.1,9,27.2,19.6
		c4.3,5.6,9.1,11.9,15.8,18.4c10.2,9.7,11.1,22.6,12.1,38.9c0.6,9.2,1.3,19.5,3.7,31c6.2,28.3-0.7,40.3-8.6,54
		c-4.1,7-8.4,14.5-11.3,25.1c-2.8,10.3-10.5,12.6-20.2,15.4c-9.5,2.8-21.1,6.1-31.4,18.8c-12.1,15-80.3,16.3-77.8-13.1
		c0.6-6.9,3.6-15.3,7.3-25.7c6.9-19.2,16.1-45,16.1-78.6c0-34.5-9.8-60.2-16.7-78.5C638.4,514.9,635.3,503.6,675.5,503.6
		L675.5,503.6z M691.7,642.9c3.3,1.6,0.1,9-3.6,5.1C685.8,645.6,689.1,641.7,691.7,642.9L691.7,642.9z M724.3,604.4
		c-1.2-1.6-1.4-3.4,0-4.9c2.8-3,5.5-1.1,6.3,2.1c0.5,1.9,0.5,3.5-1.5,4.4C727.2,606.9,725.5,605.8,724.3,604.4L724.3,604.4z
		 M704.3,589.8c-1.8-1.5-4.1-0.8-6.1-1.4c-3.6-0.9-3.1-7.7,4.6-5.6c2.2,0.6,4.2,1.4,6.5,2c7.7,2,10.2,2.6,6.1,9.2
		c-0.9,1.5-2.1,3-3.1,3.5c-3.2,1.8-4.6-1.6-5.7-4C705.9,592.2,705.2,590.6,704.3,589.8L704.3,589.8z M682.4,608.2
		c1-1.8,2.8-2.7,4.8-1.8c3.5,1.5,3.7,4.6,0.2,6.9c-1.7,1.2-3.2,1.8-4.9,0.2C680.9,612,681.4,609.9,682.4,608.2L682.4,608.2z
		 M709.6,644.5c-1.2-3.8,3.1-16.8,6.2-19.3c2.3-1.8,4.3,0.7,6.4,1.2c1.2,0.3,2.4,3.5,3.4,7.4c1.3,5.2,4.4,12.9-0.2,17
		C720.4,655.2,711.3,650.1,709.6,644.5L709.6,644.5z M689.4,675.4c1.6-0.6,3.4-3.2,4.7-4.4c3.7-3.4,6.6,0,4.7,4.5
		c-1.5,3.4-1.1,3.6-5.2,6.3c-3.8,2.6-7.1,4.2-10.7,0.7c-2.1-2.1-3.8-7.9,0.7-7.6C685.5,674.9,687.5,676.1,689.4,675.4L689.4,675.4z
		 M672.7,563.2c1.2-2,2.9-3.6,4.9-4.4c3.8-1.5,13.9,2.4,10.9,9.2c-1.5,3.4-1.1,3.6-5.2,6.3c-3.8,2.6-7.1,4.2-10.8,0.7
		C669.2,571.6,670.5,566.8,672.7,563.2L672.7,563.2z M679.3,542.3c6.8,0,12.5,2.5,18.3,5c5.2,2.2,10.5,4.5,16.7,5
		c8.2,0.7,12,6.4,17,14c2.6,3.9,5.6,8.4,9.6,12.8c6.3,6.9,6.9,16,7.5,27.5c0.3,6.4,0.8,13.7,2.3,21.6c3.8,20-0.5,28.4-5.3,38.1
		c-2.4,4.9-5.1,10.2-6.8,17.5c-1.8,7.4-6.6,9-12.7,11.1c-5.7,1.9-12.7,4.2-18.9,13c-7.9,11.2-50.4,11.3-48.3-10
		c0.5-4.7,2.3-10.5,4.4-17.4c4.2-13.5,9.8-31.5,9.8-55.1c0-24.1-5.9-42.1-10.1-55c-2.4-7.3-4.3-12.9-4.3-17.3
		C658.5,545.6,663.5,542.3,679.3,542.3L679.3,542.3z M696.6,549.5c-5.6-2.4-11-4.8-17.3-4.8c-13.9,0-18.4,2.6-18.4,8.4
		c0,4,1.8,9.4,4.2,16.5c4.3,13,10.3,31.2,10.3,55.7c0,23.9-5.7,42.2-9.9,55.8c-2.1,6.8-3.9,12.5-4.3,17c-1.8,17.9,37.1,18,43.9,8.4
		c6.6-9.5,14-11.9,20.1-13.9c5.4-1.8,9.6-3.2,11-9.3c1.8-7.6,4.5-13,7.1-18.1c4.7-9.2,8.7-17.3,5.1-36.5c-1.6-8.2-2-15.5-2.3-22
		c-0.6-11-1.1-19.7-6.8-26c-4.2-4.6-7.2-9.1-9.9-13.1c-4.7-7-8.2-12.3-15.2-12.9C707.5,554.2,702,551.8,696.6,549.5L696.6,549.5z
		 M704.2,512.9c-9.2-3.5-18.2-6.9-28.7-6.9c-37.6,0-34.2,9.4-24,36.2c7,18.5,16.8,44.5,16.8,79.4c0,34-9.3,60-16.2,79.4
		c-3.6,10.2-6.6,18.6-7.2,25.1c-2.2,25.3,62.4,25,73.4,11.4c10.8-13.3,22.7-16.8,32.5-19.6c9-2.6,16.1-4.6,18.5-13.6
		c2.9-10.9,7.3-18.5,11.5-25.7c7.7-13.2,14.3-24.8,8.3-52.3c-2.5-11.6-3.2-22-3.8-31.3c-1-15.8-1.8-28.2-11.3-37.3
		c-6.8-6.5-11.7-13-16.1-18.6c-7.7-10.2-13.6-17.8-25.4-18.7C721.8,519.6,712.9,516.2,704.2,512.9L704.2,512.9z"/>
	<path fill="#663300" d="M0,17.2c12,6,17.1,13.8,23.3,22.3c4.8,6.6,9.9,13.7,18.3,20.6c8.3,6.8,7.2,14.7,5.8,24.8
		c-1.4,9.8-3,21.7,4.4,36.3c8.7,17.2-18.2,80-44,65.7c-2.4-1.4-4.8-3.2-7.8-5.5v-3.2c3,2.7,6.2,5,9,6.5
		c22.2,12.3,48.4-46.7,40.5-62.4c-7.7-15.3-6-27.6-4.5-37.8c1.3-9.2,2.4-16.6-4.8-22.5c-8.7-7.1-14-14.3-18.8-21
		C15.6,33.1,10,25.8,0,20V17.2z M0,73.7c3,2.6,5.2,5.3,8.8,8c6.1,4.7,5.6,9.7,5,16.1c-0.6,6-1.4,13.3,4,22.6
		c5.5,9.3-3.8,35.6-17.8,40.9v-2.8c12-5.6,20.4-29,15.7-36.9c-5.9-10-5-17.7-4.4-24.1c0.6-5.6,0.9-10.1-4.1-13.9
		C4.4,81.5,2,79.4,0,77.3V73.7z"/>
	<path fill="#663300" d="M0,931.2c2-3.4,5.1-6.8,8.1-10.6c3.9-4.8,8.4-10.2,12.4-16.9c2.7-4.5,6-8.5,9.8-11.9
		c11.7-10.5,28-15.8,44.7-16.5c16.6-0.7,33.5,3.2,46.7,11c5,2.9,9.4,6.5,13.1,10.5c12.3,13.7,12.6,20.7,5.8,26.8
		c-3.5,3.2-8.9,5.9-15.5,9.3c-12.2,6.3-28.6,15-43.9,31.5C76.4,969.5,72.4,975,69,980h-2.9c3.6-5,7.9-11.6,13.3-17.3
		c15.7-16.7,32.3-25.4,44.6-31.8c6.4-3.3,11.7-6.1,15-9c5.6-5,5-11.1-6-23.4c-3.5-3.9-7.7-7.3-12.5-10.1
		c-12.7-7.5-29.2-11.3-45.3-10.7c-16.1,0.7-31.8,5.7-43.1,15.9c-3.6,3.2-6.8,7-9.3,11.3c-4.1,6.9-8.7,12.4-12.7,17.2
		c-4.2,5.1-8,9.6-10,14.3V931.2z M0,970.7c0,2.9,1.1,6.3,1.7,9.3H0V970.7z M106.8,925.9c-1,1.1-1,3.1-0.4,4.5
		c0.4,0.8,1.9,1.3,2.7,0.9c0.8-0.4,2.3-3.1,2.1-3.6c-0.2-0.6,0.1-1.7-0.6-1.9C109.4,925.3,107.7,925,106.8,925.9L106.8,925.9z
		 M49,926.3c-1,1.1-1,3.1-0.4,4.5c0.4,0.9,1.9,1.3,2.7,0.9c0.8-0.4,2.3-3,2.1-3.6c-0.2-0.7,0.1-1.7-0.6-2
		C51.7,925.7,49.9,925.4,49,926.3L49,926.3z M38.5,971.7c0.9,0.4,2.2-0.1,2.9-0.8c0.5-0.5,0.4-1.5-0.1-1.9c-0.5-0.4-2.4-0.7-2.8-0.4
		c-0.3,0.2-1,0.4-1.1,0.8C37.4,970.2,37.7,971.4,38.5,971.7L38.5,971.7z M82.9,911.5c0.6,4.7-3.4,9.1-7.4,11.6
		c-2.6,1.6,2.6-7.2,1.2-9.8c-1.3-2.5-14.4-6.5-12.9-7.7c1.7-1.3,7.1-2.9,9.2-2.4C76.9,904.1,82.4,907.5,82.9,911.5L82.9,911.5z
		 M77,959.9c4.1-0.7,4.8-7.3,8.5-9c7.8-3.6,3-10.2-4.4-6.5c-6.7,3.4-17,7.4-19.2,2.2c-0.7-1.7-3,3.5-2.1,5.1
		C61.5,954.8,73.5,960.5,77,959.9L77,959.9z M13.4,980c0.5-3,2-6.2,5-11.4c9.9-17.5-13.3-8.5-6.6-28.7c4.7-14,18-5.6,19.6-26.6
		c1.8-23.2,21.7-5.7,25.8-20.4c1.2-4.3,4.1-4.6,8.1-4.5c1.4,0,3.5,0.8,2.6-0.9c-2.8-5.1-4.2-5.1-6.8-2.6c-15.2,14.7-28.8,2-33,18.2
		c-4,15.2-8.5,24.1-13.2,26.5C6,934.1-1.5,938,13.9,959c3.7,5.1-0.8,14-1.9,21H13.4z M100.7,898.2c5.9,19.5,16-14.9,27.3,11.3
		c1.4,3.3,2,9,5.5,8.9c3.5-0.1-3.1-37.1-23.1-23.7c-0.9,0.6-4,2.6-4.6,2.9c-4,1.5,1.1-10.6-11.5-14c-2-0.5-17-3.1-18.8-0.1
		C71.4,890.4,95.4,880.5,100.7,898.2L100.7,898.2z M81,941.3c-0.4,0.5-1.3,0.5-1.9,0.3c-0.4-0.1-0.6-0.7-0.5-1.1
		c0.1-0.3,1.2-1,1.5-1c0.3,0.1,0.7-0.1,0.8,0.2C81.2,940.1,81.4,940.9,81,941.3L81,941.3z M42.5,946.1c0.4-0.5,0.4-1.3,0.2-1.9
		c-0.1-0.4-0.8-0.6-1.1-0.4c-0.3,0.2-1,1.3-0.9,1.5c0.1,0.2,0,0.7,0.2,0.8C41.4,946.4,42.2,946.5,42.5,946.1L42.5,946.1z
		 M46.5,961.3c0.2,1.9,2.8,2.5,1.2,3.5c-1,0.6-2.1-1.6-2.6-2.7c-0.5-1-2.6-3.7-2-4.2c0.6-0.5,2.8-1.2,3.6-1
		C48.2,957.3,46.3,959.7,46.5,961.3L46.5,961.3z M64.9,962c0.9,0.4,2.2-0.1,2.9-0.8c0.5-0.4,0.4-1.5-0.1-1.9
		c-0.5-0.4-2.4-0.7-2.8-0.5c-0.3,0.3-1,0.4-1.1,0.8C63.9,960.5,64.1,961.6,64.9,962L64.9,962z M69.2,932c1.2-2.5,0.1-6-1.6-8.1
		c-1.1-1.3-4-1.3-5.2-0.1c-1.2,1.1-6.9,10.4-6.3,11.3c0.7,1.1,0.8,3,2,3.2C60.4,938.4,68.1,934.2,69.2,932L69.2,932z M94.3,925.8
		c2.6,1,2.6,4.9,4.5,2.9c1.3-1.2,1-4.1-0.2-5.2c-1.2-1.1-6.7-1.9-7.6-1.2c-1,0.8-2.9,1-2.9,2.2C88,926.8,92.1,924.9,94.3,925.8
		L94.3,925.8z"/>
	<path fill="#663300" d="M747.4,18.2c0.6,10.9,4.5,19.6,8.6,28.9c3.7,8.4,7.5,16.8,8.7,27.1c1.6,12.9,10,18.5,21.1,26.1
		c5.8,4,12.4,8.4,19.1,14.7c10.3,9.7,23.2,9.8,39.5,9.9c9.2,0.1,19.6,0.2,31.1,2.1c28.6,4.7,40.2-2.9,53.4-11.6
		c6.8-4.5,14.1-9.2,24.4-12.6c10.1-3.4,12-11.2,14.2-21c2.2-9.7,4.9-20.8,17-31.8c7.9-7.1,10.7-31,6.6-50h-2.9
		c4.1,19,1.9,41.5-5.4,48.2c-12.7,11.5-15.5,23.3-17.8,33.3c-2.1,9.1-3.7,16.2-12.6,19.1c-10.6,3.5-18.1,8.3-25,12.8
		c-12.8,8.4-24,15.7-51.7,11.2c-11.7-1.9-22.2-2-31.5-2.1c-15.8-0.1-28.3-0.3-37.8-9.3c-6.9-6.5-13.6-11-19.5-15
		c-10.6-7.2-18.5-12.6-20.1-24.4c-1.4-10.7-5.2-19.4-9-27.9c-4-9-7.8-17.2-8.4-27.7c-0.4-7.9-0.3-13.1,0.3-18.1h-2.5
		C747.1,5,747,10.4,747.4,18.2L747.4,18.2z M887.6,0c-7.2,1-14.8,2.3-22.9,2.7C848.7,3.6,834.5,3,822,0h-12
		c15.2,4,33.5,6.4,54.8,5.2C877.4,4.5,888.9,3,899.4,0H887.6z M887.4,26.3c1.7,3.2,9-0.4,4.8-3.9C889.7,20.2,886,23.7,887.4,26.3
		L887.4,26.3z M850.7,61c-1.6-1.1-3.5-1.3-4.9,0.2c-2.8,3-0.8,5.6,2.5,6.2c2,0.4,3.5,0.2,4.4-1.8C853.4,63.7,852.2,62,850.7,61
		L850.7,61z M835.1,41.8c-1.6-1.7-1.1-4.1-1.7-6c-1.2-3.6-7.8-2.7-5.4,4.9c0.7,2.2,1.6,4.1,2.4,6.4c2.4,7.6,3.1,10.1,9.6,5.5
		c1.5-1.1,2.8-2.3,3.3-3.3c1.6-3.3-1.9-4.5-4.3-5.4C837.5,43.2,835.9,42.7,835.1,41.8L835.1,41.8z M852.2,18.8
		c-1.7,1.2-2.5,2.9-1.5,4.9c1.7,3.4,4.7,3.5,6.9-0.1c1.1-1.8,1.6-3.4-0.1-4.9C855.9,17.2,853.8,17.7,852.2,18.8L852.2,18.8z
		 M889.9,44.1c-3.8-1-16.6,4-18.9,7.2c-1.7,2.4,0.9,4.3,1.5,6.3c0.3,1.2,3.6,2.2,7.6,3c5.2,1,13.1,3.7,16.9-1.1
		C901.1,54.2,895.5,45.5,889.9,44.1L889.9,44.1z M919.6,22.2c-0.5,1.6-2.9,3.5-4.1,5c-3.1,3.8,0.4,6.6,4.8,4.4
		c3.3-1.6,3.5-1.3,6-5.5c2.3-3.9,3.8-7.3,0.1-10.8c-2.2-2-8.1-3.4-7.6,1.1C919,18.3,920.3,20.2,919.6,22.2L919.6,22.2z M806.7,11.6
		c-1.9,1.3-3.5,3.1-4.2,5.2c-1.3,3.9,3.1,13.7,9.7,10.4c3.3-1.6,3.5-1.3,6-5.5c2.3-4,3.8-7.3,0.1-10.8C815,7.6,810.2,9.2,806.7,11.6
		L806.7,11.6z M786.3,20c0.4,6.8,3.1,12,5.9,17.7c2.5,5,5.1,10.1,6,16.3c1.1,8.1,7,11.6,14.9,16.2c4.1,2.4,8.6,5,13.3,8.9
		c7.2,5.9,16.3,5.9,27.8,5.9c6.5,0,13.7,0,21.8,1.1c20.1,2.7,28.3-2,37.7-7.4c4.8-2.7,9.9-5.7,17.1-7.8c7.3-2.1,8.7-7.1,10.3-13.2
		c1.6-5.8,3.5-12.3,12-19c7.2-5.7,8.6-25.6,2.2-38.6h-2.9c6.5,10,5.8,31.4-0.8,36.6c-9.1,7.2-11.1,14.4-12.8,20.6
		c-1.5,5.4-2.7,9.6-8.7,11.4c-7.5,2.2-12.7,5.1-17.6,7.9c-9,5.1-16.8,9.6-36.1,7c-8.2-1.1-15.5-1.1-22.1-1.1c-11,0-19.7,0-26.3-5.4
		c-4.8-3.9-9.5-6.7-13.6-9.1c-7.3-4.3-12.7-7.5-13.7-14.5c-0.9-6.6-3.6-11.9-6.2-17.2c-2.7-5.4-5.4-10.7-5.7-17
		c-0.7-13.9,1.6-18.5,7.4-18.8c4-0.2,9.5,1.3,16.7,3.2c13.2,3.6,31.7,9.2,56.2,7.8C891.4,10.3,908.6,5,921.7,0h-7.2
		c-12,4-27,8-45.6,9c-24,1.3-42.3-3.3-55.4-6.8c-3.6-1-6.9-2.2-9.8-2.2h-11.5C787.4,1,785.6,7.3,786.3,20L786.3,20z"/>
	<path fill="#663300" d="M661.5,374.7c14,28.2,8.2,46.2,0.9,69c-0.8,2.5-1.6,5-2.3,7.4c-2.9,9.2-10.4,13.7-20,19.2
		c-5.4,3.1-11.4,6.6-17.5,11.5c-4.1,3.3-8.6,5.9-13.3,7.7c-14.7,5.8-31.8,5-47.6-0.1c-15.8-5.1-30.3-14.7-39.9-26.6
		c-3.6-4.5-6.5-9.4-8.5-14.4c-6.8-17.2-4.6-23.9,3.9-27.2c4.4-1.7,10.4-2.4,17.8-3.3c13.6-1.6,31.9-3.8,52-13.8
		c20.7-10.3,33.2-23.9,42.2-33.5c5.1-5.5,9-9.8,12.8-11.6C648.4,355.6,653.7,359.1,661.5,374.7L661.5,374.7z M637.2,401.4
		c1.3-0.7,2-2.5,2-4c0-0.9-1.3-1.9-2.2-1.8c-0.8,0.1-3.2,2.1-3.2,2.7c0,0.7-0.7,1.6-0.1,2C634.5,401.1,636.1,401.9,637.2,401.4
		L637.2,401.4z M549.6,430.8c1.3-0.7,2-2.5,2-4c0-0.9-1.3-1.9-2.2-1.8c-0.9,0.1-3.2,2.1-3.2,2.7c-0.1,0.7-0.7,1.5-0.2,2
		C546.9,430.6,548.5,431.4,549.6,430.8L549.6,430.8z M603.9,450.7c1.3-0.7,2-2.6,1.9-4c0-0.9-1.3-1.9-2.2-1.8
		c-0.9,0.1-3.2,2.1-3.2,2.7c0,0.7-0.7,1.6-0.2,2C601.2,450.4,602.8,451.3,603.9,450.7L603.9,450.7z M629.6,411.9
		c-0.7-0.7-2.1-0.7-3-0.3c-0.6,0.3-0.9,1.3-0.6,1.8c0.3,0.5,2.1,1.5,2.4,1.4c0.4-0.1,1.1,0.1,1.3-0.4
		C630.1,413.6,630.2,412.4,629.6,411.9L629.6,411.9z M567,452.7c1.1-4.7,6.3-7.3,11-8.3c3-0.6-4.9,5.8-4.5,8.8
		c0.3,2.8,11.2,11.2,9.4,11.7c-2,0.7-7.7,0.2-9.4-0.9C570,461.8,566.1,456.7,567,452.7L567,452.7z M589.4,409.4
		c-4.1-0.7-7,5.2-11.1,5.5c-8.5,0.7-6.4,8.5,1.8,7.6c7.5-0.8,18.5-1,18.8,4.7c0.1,1.9,4.1-2.3,3.7-4.1
		C602.1,419.6,592.9,410.1,589.4,409.4L589.4,409.4z M651.5,373.3c-0.4,6.3,10.5,2.3-1.5,19.3c-14.2,20.1,23.8,7.2-2.7,29.5
		c-15.4,12.9,9.6,12.5-3.7,29c-9.3,11.5-18.8-1.1-27.6,18c-9.7,21.1-22.3-2.2-31.2,10.1c-2.6,3.6-5.4,2.9-9.2,1.4
		c-1.3-0.5-3-2-2.7-0.1c0.8,5.7,2.1,6.2,5.5,4.8c19.4-8.4,27.6,8.2,37.3-5.5c9.1-12.8,16.4-19.6,21.6-20.2
		c9.7-1.1,17.9-1.8,10.9-26.9c-2.7-9.5,16.7-20.5,8.9-28c-9.2-8.8,9.6-9.2-1.7-32C651.4,365.1,651.6,373.1,651.5,373.3L651.5,373.3z
		 M545.6,459c1.3-20.3-20.2,8.4-21.6-20.2c-0.2-3.6,1.3-9.1-2.1-10.2c-3.4-1.2-10.1,35.8,13.4,30.3c1-0.2,4.7-1.1,5.3-1.1
		c4.2,0-4.7,9.5,5.9,17.1c1.7,1.2,14.8,8.8,17.6,6.7C570.3,476.5,544.4,477.4,545.6,459L545.6,459z M579.1,425.5
		c0.6-0.3,1.4,0,1.9,0.4c0.3,0.3,0.3,0.9,0,1.2c-0.2,0.2-1.5,0.5-1.7,0.4c-0.2-0.1-0.7-0.2-0.7-0.5
		C578.6,426.5,578.7,425.7,579.1,425.5L579.1,425.5z M616.9,434.4c-0.6,0.3-0.8,1.1-0.8,1.7c0,0.4,0.5,0.8,0.9,0.7
		c0.4,0,1.4-0.9,1.4-1.1c0-0.3,0.3-0.7,0.1-0.8C618,434.6,617.4,434.2,616.9,434.4L616.9,434.4z M618.5,418.8
		c0.5-1.8-1.7-3.3,0.1-3.7c1.2-0.2,1.4,2.2,1.5,3.4c0.1,1.1,1.1,4.4,0.4,4.7c-0.8,0.2-3,0.1-3.7-0.4
		C615.5,421.9,618.1,420.4,618.5,418.8L618.5,418.8z M601.4,411.7c-0.8-0.7-2.1-0.6-3-0.2c-0.6,0.2-0.9,1.3-0.6,1.8
		c0.3,0.5,2.1,1.5,2.4,1.4c0.5-0.1,1.2,0,1.3-0.4C601.9,413.5,602.1,412.3,601.4,411.7L601.4,411.7z M587,438.3
		c-2,1.9-2.2,5.5-1.3,8.1c0.6,1.6,3.3,2.7,4.8,2c1.5-0.6,10-7.3,9.8-8.4c-0.3-1.2,0.3-3.1-0.8-3.6
		C597.5,435.4,588.7,436.7,587,438.3L587,438.3z M561.3,435.4c-2.1-1.9-0.7-5.5-3.2-4.4c-1.6,0.7-2.4,3.4-1.6,5
		c0.7,1.4,5.6,4.1,6.7,3.8c1.2-0.4,3.1,0.1,3.5-1C567.6,436.6,563,436.9,561.3,435.4L561.3,435.4z M628,393.3
		c-2.1-1.8-5.7-1.8-8.2-0.7c-1.6,0.7-2.4,3.4-1.6,5c0.8,1.4,5.6,4.1,6.7,3.8c1.2-0.4,3.1,0.1,3.5-1
		C629.3,398.1,629.8,394.8,628,393.3L628,393.3z M660.1,442.9c7.1-22.3,12.7-39.9-0.8-67.2c-6.9-13.8-11.3-17.1-16.2-14.7
		c-3.4,1.7-7.2,5.8-12.1,11.1c-9.1,9.8-21.8,23.6-42.9,34c-20.5,10.3-39.1,12.4-52.8,14.1c-7.2,0.8-13.1,1.5-17.2,3.2
		c-6.9,2.7-8.6,8.6-2.5,24c1.9,4.8,4.7,9.5,8.2,13.8c9.2,11.5,23.4,20.8,38.7,25.8c15.3,5,31.8,5.8,45.9,0.2
		c4.5-1.8,8.8-4.2,12.7-7.4c6.2-5,12.4-8.6,17.8-11.8c9.1-5.3,16.3-9.5,18.9-17.8C658.5,447.7,659.3,445.3,660.1,442.9L660.1,442.9z
		"/>
</g>
<g>
	<path fill="#663300" d="M1310.6,155.7c2.7,2.2,5.4,0.4,7.8-1.2c3.6-2.3,6.8-4.5,10.1,0.8c4.8,7.7,9.1,3.2,15.1,7.6
		c4.5,3.3,14.6-2,13,10.8c-0.1,0.7,2.7,1.5,5.8,2.4c3.1,0.8,6.5,1.8,8.7,3.4c-0.5-1.7-0.6-3.4-0.1-5.5c1.8-6.8-17.7-5.7-16.9-11.6
		c0.8-6.2-2.5-6.5-5.9-6.8c-2.2-0.2-4.3-0.4-6.1-1.7c-2.1-1.5-4.1-1.7-5.9-2c-3.3-0.4-6.4-0.7-9.8-6.3c-1.9-3.1-4.2-1.6-6.6,0
		c-3.2,2.1-6.6,4.4-10.7,1.1c-6.3-5.1-11.8-1.4-16.7,1.9c-4.4,2.9-8.4,5.6-12.5,2.7c-2.8-2-4.9,0.7-7.6,4.2
		c-3.1,4-6.9,8.9-13.5,10.6c-4.1,1.1-5.4,4.4-6.7,8.3c-1.8,4.9-3.8,10.6-11.8,13.9c-3.2,1.3-3,5.1-2.3,9.4c0.4-0.3,0.8-0.5,1.4-0.7
		c7-2.9,8.8-7.9,10.4-12.4c1.6-4.4,3-8.4,8.4-9.8c5.7-1.5,9.2-6,12.1-9.7c3.6-4.6,6.3-8.1,11-4.7c2.7,2,6-0.2,9.7-2.7
		C1296.6,153.8,1302.9,149.5,1310.6,155.7L1310.6,155.7z M1375.2,193.5c-0.3-3.3-1-5.7-1.8-7.8
		C1373.1,187.4,1374.4,191.5,1375.2,193.5L1375.2,193.5z M1377.8,200.3c0.4,1.6,0.5,3,0,4.4c2.4,4,6,13,3.7,17.5l-0.3,0.7
		c-0.2,0.9-0.9,1.7-2.3,2.1l0.1,0.3c1.3,3.4,4,10.2,0,14.6c-0.6,3.4-5.4,1.8-8.9,8.9c-1.1,2.2-2.1,4.2-4.3,5
		c-4.6,1.7-3.4,4.9-2.2,7.9c0.5,1.2,0.9,2.3,1.1,3.3c0.5,2.7-0.2,4.9-4.8,5.8c-6.8,1.3-8,4.3-9,6.6c-1.1,2.4-1.9,4.4-5.9,4.3
		c-4.1-0.1-5.9,2.5-7.4,4.7c-1.7,2.4-3.1,4.5-6.4,3.4c-5.8-2-9.6-1-12.9-0.1c-2.9,0.7-5.6,1.4-9,0.2c-6.4-2.3-11.5-0.8-15.6,0.3
		c-4.8,1.3-8.4,2.3-11.5-1.9c-4.6-6.3-8.5-6.9-11.3-7.3c-2.8-0.4-4.8-0.7-5.9-4.4c-1.4-4.9-5.5-6.2-9.1-7.3
		c-4.5-1.4-8.2-2.6-6.8-8.6c0.9-4-2-6.5-4.7-8.9c-2.7-2.4-5.2-4.7-4.6-8.1c0.7-3.4-0.9-6.4-2.4-9.4c-2-3.9-3.8-7.6-1.7-12.1
		c1.5-3,0.7-7.3,0-11.4c-0.7-4.1-1.4-8,0-10.8c-0.8-4.9-2.4-11.6,3.5-14c7-2.9,8.8-7.9,10.4-12.4c1.6-4.4,3-8.4,8.4-9.8
		c5.7-1.5,9.2-6,12.1-9.7c3.6-4.6,6.3-8.1,11-4.7c2.7,1.9,6-0.3,9.7-2.7c5.6-3.7,11.9-7.9,19.6-1.7c2.7,2.2,5.4,0.4,7.8-1.2
		c3.6-2.3,6.8-4.5,10.1,0.8c2.8,4.5,5.4,4.8,8,5.1c2.2,0.3,4.5,0.5,7.1,2.4c1.2,0.9,3,1,4.9,1.2c4.7,0.5,9.2,0.9,8.1,9.6
		c-0.3,2.3,19.3,2.6,16.9,11.9c-0.7,2.7,0.1,4.8,1.3,7.5C1376.2,186,1378.3,191,1377.8,200.3L1377.8,200.3z M1376.2,206.9
		c-3.4,2.8,1.9,8.9,3.6,11.7C1379.8,214.9,1377.9,210,1376.2,206.9L1376.2,206.9z M1377,226.9c-0.2,2.2,1,5.9,1.5,8.1
		C1378.9,232.2,1377.8,229,1377,226.9L1377,226.9z M1371.1,184.9c0-4.6-5.6-5.5-9.3-6.5c-4.2-1.2-7.9-2.2-7.6-5
		c1.2-9.7-7.2-5-12-8.5c-5.8-4.2-10.1,0.9-15.8-8.3c-1.9-3.1-4.2-1.6-6.6,0c-3.2,2.1-6.6,4.4-10.7,1.1c-6.3-5.1-11.8-1.4-16.7,1.9
		c-4.4,2.9-8.4,5.6-12.5,2.7c-2.8-2-4.9,0.7-7.6,4.2c-3.1,4-6.9,8.9-13.5,10.6c-4.1,1-5.4,4.4-6.7,8.2c-1.8,5-3.8,10.6-11.8,13.9
		c-3.6,1.5-2.8,6.2-2,11.2c0.7,4.4,1.6,9.1-0.2,12.9c-1.6,3.4,0,6.6,1.7,9.9c1.7,3.4,3.4,6.8,2.6,11c-0.4,2.1,1.6,3.9,3.8,5.8
		c3.2,2.8,6.7,5.9,5.4,11.3c-0.9,3.7,1.9,4.6,5.1,5.6c4.1,1.3,9,2.8,10.7,9c0.6,2.2,2,2.4,3.9,2.7c3.3,0.5,7.7,1.1,12.9,8.3
		c2.1,2.9,5,2.1,8.8,1c4.4-1.2,10-2.8,17.1-0.3c2.7,0.9,4.9,0.3,7.5-0.3c3.6-0.9,7.8-2,14.3,0.2c1.6,0.5,2.5-0.8,3.6-2.4
		c1.9-2.7,4.1-5.8,9.4-5.7c2.4,0,2.9-1.2,3.6-2.8c1.2-2.9,2.8-6.5,10.8-8.1c2.6-0.5,3.1-1.6,2.8-2.9c-0.2-0.9-0.6-1.9-1-2.9
		c-1.6-4.1-3.4-8.5,3.6-11.1c1.3-0.5,2.1-2,2.9-3.8c3.1-6.4,8.4-7.5,8.6-8.2c-1.1-3.5-2.9-9.8-2-13.4c0.3-1.7,1.3-3,3.5-3.5
		c0.6-0.1,0.7-0.3,0.7-0.6c-0.9-4.3-10.8-11.8-4.3-16.7C1378.8,201.8,1369.3,191.6,1371.1,184.9L1371.1,184.9z M1364.8,207
		c-10.5-16-25.8-26.6-43-30.2c-17.8-3.8-42.5,0.9-56.5,12.9c-7,6.1-10.7,14.8-11.4,24.2c-0.9,12.6,3.7,25.7,12,35.3
		c16.8,19.6,39.9,25.9,58.7,23.2c11.4-1.6,23.8-7.2,29.2-18c4.1-8.2,3.5-18.9-4.4-30.9c-6.7-10.1-21.2-19.2-35.6-22.6
		c-15.7-3.7-31.1-0.5-35.2,16.9c-4,17.2,6.4,26.3,18.9,29.2c8.7,2,22.7,1.5,29.5-5.1c4.1-4.1,4.2-10.3-3.6-18.1
		c-9.4-9.6-17.9-11.8-23.6-10.6c-3,0.7-5.2,2.3-6.2,4.3c-1,1.8-1,4,0.3,6c11.9,18.8,32.7-4.7,12,2.7l-1.4-4
		c28.6-10.1,4.2,32.6-14.2,3.6c-2.1-3.4-2.1-7.1-0.4-10.3c1.6-3,4.8-5.5,9.1-6.4c6.9-1.5,16.9,0.9,27.5,11.7
		c9.9,10,9.4,18.4,3.6,24.1c-7.8,7.7-23.2,8.6-33.4,6.3c-14.6-3.4-26.8-14.1-22.1-34.3c4.6-19.8,22.2-24.3,40.3-20.1
		c15.3,3.6,30.9,13.4,38.1,24.4c8.9,13.4,9.5,25.5,4.7,35.1c-6,12.1-19.6,18.4-32.4,20.3c-20,2.9-44.6-3.8-62.5-24.6
		c-9-10.4-13.9-24.6-13-38.3c0.7-10.5,4.9-20.4,12.8-27.2c15-12.9,41-17.9,60.1-13.8c18.3,3.9,34.6,15.2,45.7,32.1L1364.8,207z"/>
	<path fill="#663300" d="M741.6,797.4c5.4,0,11,0.2,16.2,1.1c14.2,2.5,30.2,16.9,38.6,27.1c2.6,3.1,4.8,6.4,6.7,10
		c-0.4-1.4-0.9-3-1.2-4.3c-1.4-7.5-4.1-12.9-8.8-18.2c-4.9-5.4-12-10.8-22.4-18.4c-7.9-5.7-19.6-6.2-29.1-6.2
		c-16.3,0-34.2,3.9-45.3,16.8c-8.3,9.6-13.2,16-17.1,28.1c-0.2,0.6-0.5,3.2-0.8,6.3c0.7-1.7,1.4-3.3,2.3-4.9
		C694,808.7,712.3,797.4,741.6,797.4L741.6,797.4z M766,813.1c-16.8-3.7-33.4-0.8-46.8,7.6c-13.9,8.7-26.8,27.3-28.2,43.9
		c-0.7,8.3,2.4,16.3,7.9,22.7c7.4,8.7,18.6,14.2,29.9,15.2c23.2,2,42-8.5,52.4-22c6.3-8.2,10.8-19.6,7.5-29.9
		c-2.6-7.9-9.6-14.3-22.3-17.1c-10.6-2.3-25.7,0.9-37.1,7.8c-12.4,7.5-20.3,19.3-12,33c8.3,13.6,20.7,12.9,30.6,6.9
		c6.9-4.2,15.6-13.4,15.7-21.9c0.1-5.2-3.8-9.2-13.8-9.4c-12.1-0.2-19,3.6-21.8,8.1c-1.5,2.3-1.9,4.7-1.3,6.6c0.5,1.8,1.9,3.2,4,3.7
		c19.5,4.6,18.2-23.6,9.5-5.8l-3.4-1.7c12-24.6,23.3,18.3-6.9,11.3c-3.5-0.8-5.8-3.3-6.8-6.4c-0.8-3-0.3-6.5,1.8-9.8
		c3.5-5.4,11.5-10,25.1-9.8c12.7,0.2,17.6,5.9,17.5,13.3c-0.2,9.9-9.5,20.2-17.6,25.1c-11.5,7-26.1,7.8-35.8-8.2
		c-9.5-15.6-1-29.6,13.3-38.3c12.1-7.3,28.3-10.8,39.9-8.3c14.2,3.1,22.2,10.5,25.2,19.6c3.7,11.6-1,24.2-8.1,33.5
		c-11.1,14.4-31.1,25.6-55.7,23.4c-12.4-1.1-24.4-7-32.5-16.5c-6.2-7.2-9.7-16.2-8.9-25.6c1.5-17.8,15.2-37.4,30-46.7
		c14.2-9,31.8-12,49.6-8.1L766,813.1z M808.2,852.1c0.7,5.6,0.5,10-0.7,15.5c-2.6,12.6-11.3,21.1-22.2,31.9
		c-3.5,3.5-7.2,7.2-11,11.4c-12.5,13.6-55.1,7.2-68.9,0.7c-8.9-4.1-15.8-10.3-18.5-18.8c-1.5-4.7-3.5-8.9-5.5-12.9
		c-3.5-7-6.7-13.6-6.7-21.9c0-2.1,0.1-4.2,0.4-6.3c-0.2-3.2,0.8-16.4,1.7-19.1c4.1-12.6,9.1-19.1,17.6-29
		c11.5-13.5,30.1-17.6,47.1-17.6c10.1,0,22.1,0.6,30.5,6.7c10.5,7.7,17.7,13.2,22.8,18.8c5.1,5.7,7.9,11.4,9.4,19.4
		C805.8,838.5,808.1,843.5,808.2,852.1L808.2,852.1z M805.7,852.5c-1.1-9.7-5.1-17.8-11.2-25.3c-8-9.7-23.3-23.9-37.1-26.3
		c-5-0.9-10.5-1.1-15.7-1.1c-28.8,0-45.9,10.8-58.7,36c-3.5,6.8-5.7,14.2-5.7,22.2c0,7.8,3.1,14.1,6.4,20.9c2,4.1,4.1,8.4,5.6,13.2
		c2.5,7.8,8.9,13.4,17.2,17.3c12.5,5.8,54.4,12.5,66-0.2c3.8-4.2,7.6-8,11.1-11.5C797.3,884,808.1,873.3,805.7,852.5L805.7,852.5z"
		/>
	<path fill="#663300" d="M547.5,678.1c-1.6,0.2-3.1,0.2-4.3-0.4c-4.2,2.1-13.4,5-17.7,2.3l-0.6-0.4c-1-0.2-1.6-1-1.9-2.5l-0.4,0.1
		c-3.5,1-10.5,3.1-14.6-1.1c-3.3-0.9-1.3-5.5-8.2-9.6c-2.1-1.3-4-2.4-4.7-4.7c-1.3-4.8-4.6-3.7-7.7-2.8c-1.2,0.4-2.3,0.7-3.4,0.8
		c-2.8,0.3-4.9-0.6-5.5-5.2c-0.8-6.9-3.6-8.3-5.9-9.5c-2.3-1.2-4.2-2.2-3.8-6.2c0.4-4.1-2.1-6.1-4.1-7.7c-2.3-1.9-4.3-3.5-2.9-6.7
		c2.4-5.6,1.7-9.5,1.2-12.8c-0.5-3-1-5.7,0.5-9c2.8-6.2,1.7-11.4,0.9-15.6c-0.9-4.9-1.7-8.5,2.8-11.3c6.7-4.1,7.6-7.9,8.2-10.7
		c0.7-2.8,1.1-4.8,4.9-5.5c4.9-1,6.6-5,8-8.5c1.7-4.4,3.2-8,9.1-6.1c3.8,1.3,6.6-1.5,9.2-4c2.6-2.5,5.1-4.9,8.5-4
		c3.3,0.9,6.5-0.4,9.6-1.6c4-1.6,7.9-3.3,12.2-0.7c2.9,1.7,7.3,1.3,11.4,0.9c4.2-0.4,8.2-0.7,10.8,0.9c5-0.5,11.7-1.5,13.7,4.5
		c2.3,7.2,7.2,9.4,11.5,11.4c4.3,2,8.2,3.7,9.1,9.2c1,5.8,5.2,9.7,8.7,12.8c4.3,4,7.6,6.9,3.8,11.4c-2.2,2.5-0.2,6,1.9,9.8
		c3.3,5.9,7,12.5,0.2,19.7c-2.3,2.5-0.8,5.3,0.6,7.9c2,3.7,3.9,7.1-1.6,10c-4.8,2.4-5.2,4.9-5.8,7.6c-0.4,2.1-0.9,4.4-3,6.9
		c-0.9,1.1-1.3,3-1.6,4.8c-0.8,4.6-1.6,9.1-10.2,7.3c-2.2-0.5-4.1,19.1-13.2,15.9c-2.6-0.9-4.8-0.2-7.6,0.6
		C561.9,677.6,556.7,679.2,547.5,678.1L547.5,678.1z M563.3,672.5c4.6,0.4,5.9-5.1,7.3-8.8c1.5-4.2,2.8-7.7,5.6-7.2
		c9.5,1.9,5.6-6.8,9.4-11.3c4.6-5.4-0.1-10.1,9.5-15.1c3.3-1.7,2-4,0.5-6.6c-1.8-3.4-3.8-7-0.2-10.8c5.6-5.8,2.3-11.7-0.6-16.8
		c-2.6-4.6-4.9-8.8-1.7-12.6c2.2-2.6-0.3-4.9-3.6-7.9c-3.7-3.4-8.3-7.6-9.5-14.3c-0.7-4.2-4-5.7-7.7-7.3
		c-4.8-2.2-10.2-4.7-12.9-12.9c-1.2-3.7-5.9-3.3-11-2.9c-4.5,0.4-9.2,0.9-12.8-1.3c-3.3-1.9-6.6-0.5-10,0.9
		c-3.5,1.4-7.1,2.9-11.2,1.7c-2.1-0.6-4,1.3-6.1,3.4c-3.1,3-6.4,6.2-11.7,4.5c-3.6-1.2-4.7,1.5-6,4.7c-1.6,4-3.5,8.7-9.8,9.9
		c-2.2,0.5-2.5,1.8-2.9,3.7c-0.7,3.2-1.7,7.6-9.3,12.2c-3,1.9-2.5,4.8-1.7,8.7c0.9,4.5,2,10.2-1,17.1c-1.2,2.6-0.8,4.9-0.3,7.5
		c0.7,3.7,1.4,7.9-1.3,14.2c-0.7,1.5,0.6,2.6,2.2,3.8c2.5,2.1,5.5,4.5,5,9.9c-0.2,2.4,1,3,2.5,3.8c2.8,1.4,6.3,3.3,7.2,11.4
		c0.3,2.7,1.4,3.2,2.7,3c0.9-0.1,1.9-0.4,2.9-0.7c4.2-1.3,8.8-2.7,10.8,4.5c0.3,1.4,1.9,2.2,3.5,3.2c6.1,3.6,6.8,8.9,7.6,9.2
		c3.5-0.8,9.9-2.1,13.5-0.9c1.7,0.4,2.9,1.5,3.2,3.7c0.1,0.6,0.3,0.7,0.6,0.7c4.3-0.6,12.6-9.9,17-3
		C545.9,679,556.9,670.3,563.3,672.5L563.3,672.5z M541.9,664.6c16.7-9.2,28.5-23.7,33.5-40.5c5.2-17.4,2.5-42.4-8.4-57.3
		c-5.5-7.5-13.9-11.9-23.3-13.3c-12.5-1.9-25.9,1.7-36.1,9.2c-20.8,15.2-29,37.7-27.8,56.6c0.7,11.5,5.3,24.3,15.6,30.5
		c7.9,4.7,18.5,5,31.1-2c10.6-5.8,20.8-19.6,25.3-33.6c4.9-15.4,2.9-31-14.1-36.4c-16.8-5.4-26.7,4.3-30.6,16.5
		c-2.7,8.5-3.3,22.6,2.8,29.8c3.7,4.4,9.9,5,18.4-2.2c10.3-8.6,13.2-16.9,12.4-22.7c-0.4-3-1.9-5.3-3.7-6.5c-1.7-1.1-4-1.3-6-0.2
		c-19.7,10.4,2.1,33-3.6,11.8l4.1-1.1c7.9,29.3-32.9,1.6-2.4-14.4c3.5-1.9,7.3-1.6,10.3,0.4c2.9,1.9,5.1,5.2,5.7,9.5
		c1,7-2.2,16.8-13.8,26.6c-10.8,9.1-19.1,7.9-24.3,1.6c-7.1-8.4-6.8-23.8-3.6-33.8c4.5-14.2,16.2-25.6,35.9-19.3
		c19.4,6.2,22.5,24,16.9,41.7c-4.8,15-15.8,29.7-27.3,36c-14.1,7.8-26.2,7.5-35.4,2c-11.5-7-16.8-21-17.7-33.9
		c-1.3-20.2,7.3-44.2,29.5-60.3c11.1-8.1,25.6-11.9,39.2-9.9c10.4,1.5,19.9,6.5,26.1,14.9c11.7,16,14.6,42.3,9,61
		c-5.4,17.9-17.8,33.3-35.6,43L541.9,664.6z"/>
	<path fill="#663300" d="M997.9,418.4c-16.8-3.7-33.3-0.8-46.7,7.6c-13.9,8.7-26.8,27.3-28.3,43.9c-0.7,8.3,2.4,16.3,7.9,22.7
		c7.4,8.7,18.6,14.2,29.9,15.2c23.1,2,42-8.5,52.4-22c6.3-8.2,10.8-19.6,7.5-29.9c-2.5-7.9-9.6-14.3-22.3-17.1
		c-10.7-2.3-25.8,1-37.1,7.8c-12.4,7.5-20.3,19.3-12,33c8.2,13.6,20.7,12.9,30.6,6.9c6.9-4.2,15.6-13.4,15.7-21.9
		c0.1-5.2-3.7-9.2-13.7-9.4c-12.1-0.2-19,3.6-21.9,8.1c-1.5,2.3-1.9,4.7-1.3,6.7c0.5,1.8,1.9,3.2,4,3.7c19.5,4.6,18.1-23.6,9.4-5.8
		l-3.4-1.7c12-24.6,23.3,18.3-6.9,11.3c-3.5-0.8-5.8-3.3-6.8-6.4c-0.9-3-0.3-6.5,1.8-9.8c3.5-5.4,11.5-10,25.1-9.8
		c12.7,0.2,17.6,5.9,17.5,13.3c-0.2,9.9-9.5,20.2-17.6,25.1c-11.5,7-26.1,7.8-35.8-8.2c-9.5-15.6-1-29.6,13.3-38.3
		c12.1-7.3,28.3-10.8,39.9-8.3c14.2,3.1,22.2,10.5,25.1,19.6c3.7,11.6-1,24.2-8.1,33.5c-11.1,14.4-31.1,25.6-55.7,23.4
		c-12.4-1-24.4-7-32.5-16.5c-6.2-7.2-9.7-16.2-8.8-25.6c1.5-17.8,15.1-37.4,30-46.7c14.3-9,31.8-12,49.6-8.1L997.9,418.4z
		 M1040,457.3c0.6,5.6,0.5,10-0.7,15.5c-2.6,12.6-11.3,21.1-22.2,31.9c-3.5,3.5-7.2,7.2-11,11.4c-12.5,13.6-55.1,7.2-68.9,0.8
		c-8.9-4.2-15.8-10.3-18.5-18.8c-1.5-4.7-3.5-8.9-5.5-12.9c-3.4-7-6.7-13.6-6.7-21.9c0-2.1,0.2-4.2,0.5-6.3
		c-0.2-3.2,0.8-16.4,1.7-19.1c4.1-12.6,9.1-19.1,17.6-29c11.6-13.5,30.1-17.6,47.2-17.6c10.1,0,22.1,0.6,30.5,6.7
		c10.5,7.7,17.7,13.2,22.8,18.8c5.1,5.7,7.9,11.4,9.4,19.4C1037.7,443.8,1040,448.8,1040,457.3L1040,457.3z M1037.6,457.8
		c-1.1-9.7-5.1-17.8-11.2-25.3c-8-9.7-23.3-23.9-37.1-26.3c-5-0.9-10.5-1-15.7-1c-12.5,0-25.9,2.2-36.5,9.2
		c-7,4.5-18.4,19.3-22.2,26.8c-3.5,6.8-5.7,14.2-5.7,22.2c0,7.8,3.1,14.1,6.4,20.9c2,4.1,4.1,8.4,5.7,13.2
		c2.5,7.8,8.9,13.4,17.2,17.3c12.5,5.8,54.4,12.5,66-0.2c3.8-4.2,7.6-8,11.1-11.5C1029.2,489.3,1040,478.6,1037.6,457.8
		L1037.6,457.8z"/>
	<path fill="#663300" d="M58,334.2c0.7,3.4,3.9,3.6,6.9,4c4.2,0.4,8.1,0.8,7.4,6.9c-1.1,9,5.1,8.2,7,15.4c1.5,5.4,12.7,7.5,3.4,16.5
		c-0.5,0.5,1.2,2.8,3.1,5.5c1.9,2.6,3.9,5.5,4.7,8.2c0.7-1.6,1.7-3,3.4-4.3c5.7-4.2-10.3-15.5-6-19.6c4.5-4.3,2.1-6.6-0.3-9
		c-1.6-1.5-3.1-3-3.7-5.1c-0.7-2.5-2.1-3.9-3.4-5.3c-2.3-2.3-4.5-4.5-3.7-11.1c0.4-3.6-2.3-3.9-5.2-4.2c-3.8-0.3-7.9-0.8-9-5.9
		c-1.7-7.9-8.3-8.4-14.2-9c-5.3-0.5-10-0.9-11.4-5.7c-0.9-3.3-4.2-2.5-8.6-1.5c-4.9,1.2-11,2.6-17.1-0.2c-3.9-1.8-7.1,0.1-10.6,2.2
		L0,312.3v-2.9c3.7-2.2,7.3-3.9,12-1.8c5.4,2.4,11.1,1.1,15.6,0c5.7-1.4,10-2.4,11.6,3.2c0.9,3.2,4.8,3.5,9.2,3.9
		c6.7,0.6,14.3,1.3,16.4,10.9c0.7,3.4,3.9,3.7,6.9,4c4.2,0.4,8.1,0.8,7.4,6.9c-0.6,5.3,1.2,7.1,3,9.1c1.5,1.5,3.2,3.2,4,6.3
		c0.4,1.4,1.7,2.7,3,4c3.4,3.3,6.6,6.4,0.4,12.5c-1.7,1.6,13.5,14.1,5.7,19.8c-2.2,1.6-2.9,3.8-3.7,6.6c-1.2,4-2.8,9.1-8.9,16.1
		c-0.7,1.5-1.5,2.7-2.7,3.4c-0.6,4.6-3.5,13.9-8,16l-0.7,0.3c-0.7,0.7-1.7,0.8-3.1,0.1l-0.1,0.4c-1.1,3.5-3.3,10.4-9.1,11.4
		c-2.6,2.2-5.3-2-12.5,1.4c-2.2,1-4.2,2-6.5,1.2c-4.6-1.6-5.7,1.7-6.6,4.8c-0.4,1.2-0.7,2.3-1.2,3.3c-1.3,2.4-3.3,3.7-7.4,1.5
		c-6.1-3.2-9-1.7-11.2-0.5c-2.3,1.3-4.4,2.2-7.4-0.3c-2-1.7-3.4-1.9-5.9-1.7v-2.5c2.5-0.2,4.9,0.1,7.5,2.3c1.8,1.5,3.1,0.9,4.6,0.1
		c2.7-1.5,6.3-3.4,13.5,0.5c2.4,1.2,3.4,0.7,4-0.5c0.4-0.8,0.7-1.8,1.1-2.9c1.3-4.2,2.7-8.8,9.7-6.4c1.3,0.5,2.9-0.3,4.7-1.1
		c6.5-3,11.2-0.6,11.9-1c1.3-3.4,3.9-9.4,6.9-11.7c1.3-1.2,2.9-1.5,4.9-0.5c0.5,0.2,0.8,0.2,0.9-0.1c2-3.9-1.1-16,7.1-15.7
		c5.6,0.2,4.6-13.7,10.1-17.8c2.9-3.6-0.9-7.8-3.2-11c-2.6-3.6-4.8-6.7-2.8-8.7c7-6.8-2.4-8.4-4-14.1c-1.9-6.9-8.4-5.6-7.1-16.3
		c0.5-3.6-2.2-3.8-5.2-4.1c-3.8-0.4-7.9-0.8-9-5.9c-1.7-7.9-8.4-8.5-14.2-9c-5.3-0.5-10-0.9-11.4-5.7c-0.9-3.3-4.2-2.5-8.6-1.5
		c-4.9,1.2-11.1,2.6-17.3-0.2c-1.4-0.6-2.8-0.8-4.1-0.6v-2.6c2.5-0.1,3.3,0.1,5.1,0.9c5.4,2.4,11,1.1,15.6,0
		c5.7-1.4,10-2.4,11.6,3.2c0.9,3.2,4.8,3.5,9.3,3.9C48.3,323.9,55.9,324.6,58,334.2L58,334.2z M84.8,404.1c1.7-2.7,2.8-5.1,3.5-7.2
		C86.9,398.1,85.3,402.1,84.8,404.1L84.8,404.1z M77.2,415.2c-4.4,0.1-4.1,8.2-4.5,11.3C74.9,423.7,76.5,418.7,77.2,415.2
		L77.2,415.2z M65.3,431.3c-1.6,1.5-2.9,5.2-3.9,7.3C63.4,436.7,64.5,433.5,65.3,431.3L65.3,431.3z M68.3,408.2
		c1.8-19-3.5-36.9-14.7-50.5c-11.5-14.1-33.9-25.9-52.3-25.3c-0.4,0,0,0-1.3,0v-4.2c1.2,0,0.8,0,1.1-0.1
		c19.8-0.6,43.3,11.7,55.7,26.8c11.8,14.5,17.5,33.5,15.6,53.6L68.3,408.2z M0,436.3c9.9,4.3,20.4,6.3,29.8,1.9
		c8.3-3.8,14.6-12.5,15.9-26.9c1.1-12-4.6-28.2-13.7-39.8c-8.5-10.8-19.7-17.6-32-12.5v-4.5c13.6-4.6,26,2.5,35.4,14.4
		c9.7,12.4,15.8,29.8,14.6,42.9c-1.5,16.1-8.7,25.9-18.4,30.3c-10,4.6-21.7,3.1-31.5-1.1V436.3z M0,406.2c4.9,3.5,11.3,6,16.7,5.5
		c5.7-0.6,9.7-5.4,8.6-16.4c-1.4-13.3-6.5-20.4-11.8-23c-2.7-1.4-5.4-1.4-7.5-0.6c-1.9,0.8-3.3,2.5-3.6,4.9
		c-2.4,22.1,28.5,16.8,7.7,9.7l1.2-4c23.5,8.2-2.8,21.8-11.4,7.7v-19c1.2-1.3,2.6-2.4,4.2-3c3.1-1.4,7.2-1.3,11.1,0.7
		c6.4,3.1,12.6,11.3,14.2,26.3c1.4,14.1-4.3,20.2-12.5,21.1c-5.6,0.6-10.9-1.5-17.1-4.7V406.2z"/>
	<path fill="#663300" d="M1400,562.7c-3.7-0.7-4.5,2.3-5.3,5.1c-0.3,1.2-0.7,2.3-1.2,3.3c-1.3,2.5-3.2,3.7-7.4,1.6
		c-6.1-3.2-8.9-1.7-11.2-0.5c-2.4,1.3-4.2,2.3-7.3-0.3c-3.1-2.6-6.2-1.7-8.7-0.9c-2.9,0.8-5.3,1.5-7.2-1.4c-3.3-5.2-6.8-6.8-10-8.2
		c-2.8-1.3-5.2-2.4-7.1-5.4c-3.6-5.8-8.5-7.8-12.4-9.5c-4.5-2-8-3.4-7.7-8.7c0.4-7.8-2.3-10.7-4.2-12.8c-2-2.1-3.3-3.6-1.8-7.1
		c2-4.7-0.5-8.3-2.5-11.4c-2.6-3.9-4.8-7.2,0.1-10.9c3.2-2.5,2.5-6.3,1.9-9.9c-0.6-3.6-1.2-6.9,1.5-9.2c2.6-2.2,3.3-5.6,4-8.9
		c0.9-4.3,1.7-8.4,6.2-10.5c3-1.5,5.2-5.3,7.2-8.9c2-3.7,4-7.2,6.8-8.5c2.4-4.4,5.4-10.5,11.5-8.7c7.2,2.1,11.8-0.7,15.9-3.1
		s7.6-4.7,12.7-2.4c5.4,2.4,10.9,1.1,15.5,0c5-1.2,9.6-2.1,10.8,1.6v16.2c-3.7-0.5-7.4-1.5-8.5-5.4c-0.9-3.3-4.2-2.5-8.6-1.5
		c-4.9,1.2-10.9,2.6-17.1-0.2c-3.9-1.7-7,0.1-10.4,2.2c-4.5,2.8-9.5,5.8-17.9,3.4c-3.8-1.1-6.1,3-8.5,7.5c-2.2,3.9-4.5,8.1-8.3,9.9
		c-3.4,1.6-4.1,5.1-4.9,8.8c-0.8,3.7-1.5,7.5-4.8,10.2c-1.6,1.4-1.2,4.1-0.7,6.9c0.7,4.2,1.5,8.9-2.8,12.2c-3,2.4-1.4,4.8,0.5,7.6
		c2.4,3.6,5.2,7.8,2.7,13.7c-0.9,2.1,0.1,3.1,1.4,4.5c2.2,2.4,5.3,5.7,4.9,14.6c-0.1,3.6,2.6,4.8,6.3,6.3c4.3,1.8,9.6,4.1,13.5,10.5
		c1.5,2.4,3.6,3.4,6.1,4.5c3.4,1.5,7.3,3.3,11,9.1c0.9,1.4,2.5,0.9,4.4,0.3c3.1-0.9,6.8-2,11,1.4c1.8,1.5,3,0.9,4.5,0
		c2.8-1.5,6.3-3.3,13.5,0.5c2.4,1.3,3.4,0.7,4.1-0.5c0.4-0.8,0.7-1.8,1-2.9c1.2-3.8,2.8-7.8,7.7-6.9V562.7z M1400,462.2
		c-11.1-7.5-24.9-12.4-37-12c-9.3,0.3-17.6,4.8-24,11.8c-8.6,9.3-13.1,22.4-12.7,35c0.9,25.8,14.9,45.2,31.2,54.8
		c9.9,5.8,23.1,9.3,34,4.3c3.3-1.5,6.1-3.7,8.5-6.8v6.2c-2.5,1.8-4.3,3.3-6.7,4.4c-12.2,5.6-26.8,2.1-37.9-4.4
		c-17.4-10.3-32.4-30.9-33.3-58.3c-0.5-13.7,4.5-27.8,13.8-38c7.2-7.8,16.5-12.8,27-13.2c12.2-0.4,26.1,4.1,37.2,11.2V462.2z
		 M1400,499.2c-1.2-3.5-3.9-6.9-6.3-9.9c-9.9-12.7-23.9-19.8-38-8.8c-13.9,10.9-11.4,24.5-3.5,34.6c5.5,7,16.8,15.4,26.3,14.4
		c5.7-0.6,9.7-5.4,8.5-16.4c-1.4-13.4-6.6-20.4-11.8-23c-2.8-1.4-5.5-1.4-7.6-0.6c-1.9,0.8-3.3,2.5-3.5,4.9
		c-2.4,22.1,28.5,16.8,7.7,9.6l1.4-4c28.6,9.9-17.1,28.1-13.4-6.1c0.5-4,2.8-6.9,6.1-8.3c3.1-1.3,7.1-1.3,11.1,0.7
		c6.4,3.1,12.6,11.3,14.2,26.4c1.5,14-4.2,20.2-12.3,21c-11,1.2-23.5-7.8-30-16c-9.2-11.8-12.1-27.7,4.3-40.5
		c16-12.5,32.4-5.1,43.9,9.5c1,1.3,1.7,2.8,2.9,4.2V499.2z"/>
</g>
<g>
	<path fill="#663300" d="M823,278.5c8.6,0.3,17.8,4.3,21.5,12.5c1.8,3.9,2,10.7,0.3,14.8c-2.9,6.5-11.5,3.1-15.8,0
		c-7.8-5.7-9.4-16.5-8.6-25.5c0.6-7.3,2.9-14,5.5-17.6c2.3-3.2,5.7-7.5,10.3-10.1c4.6-2.7,10.4-3.6,17.2,0
		c6.5-0.3,11.3-1.6,10.1-9.2c-9.2-7-20.4-7.3-30.3-1.9c-34.2,18.6-35.1,91.5,8.9,79.1c21.3-6,20.2-26.6,9.6-42.6
		c-5.5-8.3-15.4-11.7-25.1-11.6C824.9,269.4,823.7,273.7,823,278.5L823,278.5z M788.3,314.7c8-3.1,18-3.2,24.7,2.8
		c3.2,2.8,6.2,9,6.2,13.4c0,7.1-9.3,7.5-14.5,6.4c-4.6-1-8.4-3.7-11.5-7.4c-3-3.6-5.2-8-6.8-12.5c-2.3-6.9-3-14-2.1-18.3
		c1-4.6,3.5-11.4,8.5-15.8c3.4-3,7.8-5,13.7-4.8c0.8-4.4,1.9-8.6,3.4-12.5c-10.9-2.2-20.9,2-27.6,10.8c-12.4,16.1-9.9,39.5-2.2,57.1
		c6.2,14.1,18.9,21.5,33.1,16.8c11-3.7,20.2-14.6,17.9-26.8c-13.7-1.3-23.1-10.8-25.2-24.4c-6.5-1.3-13.5,0.1-19.5,2.8
		C786.4,305.7,786.9,310.2,788.3,314.7L788.3,314.7z M806.3,281c-5-0.1-8.9,1.6-11.7,4.1c-4.5,4-6.8,10.1-7.7,14.3
		c5.8-2.4,12.5-3.6,18.7-2.5C805.2,291.8,805.6,286.1,806.3,281L806.3,281z M822.8,280.9c-0.6,8,0.7,17.8,7.7,22.8
		c2.7,2,10,5.8,12.1,1c1.5-3.4,1.3-9.6-0.2-12.8C839,284.6,830.4,281.2,822.8,280.9L822.8,280.9z M837.3,254.6
		c-4.1,2.4-7.2,6.3-9.4,9.3c10,0.3,19.9,4.1,25.7,12.7c11.6,17.5,11.9,39.8-11,46.3c-2.9,0.8-5.9,1.2-8.9,1.2
		c1.4,8.5-2.2,16.7-8.4,22.4c8.6,9.7,7.1,24.2-0.3,34.1c-12.1,16.3-30,13-44.6,2.8c-0.9,8.8,6.3,16.5,14.6,18.5
		c4.1,1,8,0.5,11.7-1.6c9.1,0.3,14.7,2.7,12.9,13.1c-16.9,13.3-44.6,3.2-52.7-16.1c-3.1-7.3-4-16.5-1.6-27.8
		c-7.6-9.3-12.9-21.2-12.4-33.4c0.6-12.2,7-22.3,18.5-27c-0.8-11.8,1.7-24.4,9.1-33.8c7.4-9.6,18.5-14.2,30.5-11.6
		c4.2-10,11.2-19.2,20.9-24.5c11.4-6.2,23.6-5.4,33.8,2.7c1.8,10.3-3.8,12.7-12.9,13.1C847.6,252.2,842.6,251.6,837.3,254.6
		L837.3,254.6z M781.9,364c3.3-4.9,8-9.1,13.7-11c-4.5-1.6-8.7-4.6-12.4-9.2c-3.7,2.4-7.7,7.3-9.9,11
		C775.2,357.7,778.2,361.1,781.9,364L781.9,364z M809.9,354.2c1.1,0.6,2.2,1.2,3.1,1.9c8.6,6.3,4.1,13.3-4.7,17
		c-4.3,1.8-9,1.7-13.6,0.5c-4.5-1.2-8.9-3.5-12.7-6.3c-5.9-4.3-10.5-9.8-12.2-13.8c-1.5-3.6-3.6-8.7-3.6-14c0-5.2,1.9-10.4,8.2-14.4
		c-1.4-4.5-2.2-9-2.7-13.3c-10.1,4.4-15.7,13.6-16.2,24.5c-1.4,30.9,45.4,72.9,67.6,42.9c6.6-9,8.2-22.3,0.3-31.1
		C819.5,351.2,814.8,353.3,809.9,354.2L809.9,354.2z M775.1,327.5c-9.4,6.4-6.8,16-3.1,24.8c2.4-3.7,6.1-8,9.8-10.5
		C778.9,337.6,776.8,332.4,775.1,327.5L775.1,327.5z M789,317.1c1.4,4.1,3.5,8,6.2,11.2c2.7,3.2,6.1,5.7,10.1,6.5
		c3.3,0.7,11.5,1.2,11.5-4c0-3.7-2.7-9.2-5.4-11.6C805.3,314,796.2,314.3,789,317.1L789,317.1z M792.5,357.1
		c-3.3,1.9-6.3,4.8-8.6,8.4c3.5,2.5,7.5,4.6,11.5,5.7c4.1,1.1,8.2,1.2,12-0.4c7.2-3,11.1-7.6,4.2-12.7
		C805.5,353.6,799.1,353.3,792.5,357.1L792.5,357.1z M767.3,372c-1.9,9.9-0.9,18,1.8,24.5c7.3,17.4,32.7,27.1,48.2,15.6
		c1.2-7.7-3.6-9-10.1-9.2c-4.1,2.1-8.6,2.5-12.8,1.5c-10-2.3-18.2-12-16.3-22.5C774,378.7,770.4,375.4,767.3,372L767.3,372z"/>
	<path fill="#663300" d="M244.7,447.8c5.4-6.7,8.5-16.2,4.9-24.4c-1.7-3.9-6.7-8.6-10.9-10c-6.8-2.2-9.9,6.5-10.5,11.9
		c-0.9,9.6,6.1,18,13.4,23.4c5.8,4.3,12.4,7.1,16.8,7.5c3.9,0.4,9.4,0.7,14.4-0.9c5.1-1.7,9.6-5.4,11.4-12.9
		c4.5-4.7,8.6-7.3,13.6-1.4c-0.8,11.5-8,20.1-18.7,24c-36.6,13.3-91.8-34.3-53.3-59.1c18.6-12,33.3,2.4,38.2,21
		c2.6,9.6-1.4,19.3-7.9,26.5C252.8,452.3,248.7,450.5,244.7,447.8L244.7,447.8z M194.5,449.8c7.7-3.9,14.3-11.3,14.3-20.4
		c0-4.3-2.7-10.6-5.9-13.6c-5.3-4.7-11.8,2-14.3,6.6c-2.3,4.1-2.8,8.8-2.1,13.5c0.7,4.6,2.6,9.2,4.9,13.3
		c3.6,6.3,8.5,11.5,12.3,13.7c4.1,2.3,10.8,4.9,17.6,4.1c4.4-0.5,8.9-2.6,12.6-7.1c3.8,2.3,7.7,4.2,11.5,5.7
		c-5.6,9.7-15.3,14.3-26.3,13.5c-20.3-1.4-36.3-18.7-44.3-36.1c-6.4-14-3.6-28.4,9.3-35.9c10-5.8,24.3-5.5,31.9,4.3
		c-8.1,11.1-7.2,24.5,1.6,35.1c-3.4,5.7-9,10.1-15,12.7C200,457.2,197,453.8,194.5,449.8L194.5,449.8z M231.7,458.6
		c-3.3,3.8-7,5.5-10.8,6c-6,0.7-12-1.6-15.8-3.7c5.6-2.8,10.9-7,14.3-12.4C222.9,452.3,227.5,455.8,231.7,458.6L231.7,458.6z
		 M242.7,446.4c-6.4-4.8-12.8-12.4-12-20.9c0.3-3.4,2.3-11.4,7.2-9.8c3.5,1.1,8,5.4,9.4,8.6C250.6,431.8,247.6,440.4,242.7,446.4
		L242.7,446.4z M272.1,452.8c-4.4,1.5-9.5,1.2-13.2,0.9c6.4-7.7,10.1-17.6,7.5-27.6c-5.4-20.3-21.9-35.3-42-22.5
		c-2.5,1.6-4.8,3.6-6.8,5.9c-5.5-6.7-14-9.4-22.4-8.5c-1.5-12.8-13.5-21.3-25.8-22.4c-20.2-1.7-29.6,13.8-31.7,31.6
		c-7.2-5.1-8.2-15.7-4.2-23.1c2-3.8,4.9-6.3,9-7.8c5.7-7,7.7-12.9-1.3-18.3c-21.1,3.9-32,31.3-22.9,50.1c3.4,7.1,9.7,13.9,19.8,19.6
		c2,11.9,7.3,23.7,16.8,31.4c9.5,7.6,21.4,9.5,32.5,4c8.3,8.4,19.4,14.8,31.4,15.6c12.1,0.8,22.9-4.4,28.8-15.2
		c10.3,3.5,21.9,4.3,32.2,0.6c12.1-4.4,19.6-14.1,20.4-27.1c-6.5-8.2-12.1-5.6-18.3,1C280.7,446.8,277.8,450.9,272.1,452.8
		L272.1,452.8z M153.4,421.9c5.9,0.8,12.2,0.1,17.4-3c-1.7,4.5-2.3,9.6-1.3,15.4c-4.3,1.2-10.5,0.9-14.8,0.1
		C153.6,431.1,153.1,426.7,153.4,421.9L153.4,421.9z M179.3,407.5c0.3-1.2,0.5-2.4,0.6-3.6c1-10.6-7.2-11.9-15.8-7.7
		c-4.2,2.1-7.3,5.6-9.4,9.8c-2.1,4.2-3.2,9-3.6,13.7c-0.7,7.3,0.3,14.3,2.2,18.3c1.7,3.5,4.2,8.5,8.1,12c3.9,3.5,9.1,5.5,16.2,3.4
		c2.5,4,5.2,7.6,8.2,10.8c-10,4.6-20.6,2.8-29.1-4.1c-24.1-19.4-24.7-82.3,12.7-79c11.1,0.9,22.2,8.6,23.6,20.3
		C187.9,402.3,183.2,404.4,179.3,407.5L179.3,407.5z M176.2,451.2c-11,2.8-16.4-5.5-20.6-14.1c4.4,0.6,10,0.8,14.3-0.4
		C171.2,441.7,173.6,446.7,176.2,451.2L176.2,451.2z M193.2,447.7c-2.1-3.7-3.7-7.9-4.3-12c-0.6-4.2-0.2-8.3,1.8-11.9
		c1.7-2.9,6.7-9.4,10.6-6c2.8,2.4,5.1,8.2,5.1,11.7C206.4,437.5,200.1,444.2,193.2,447.7L193.2,447.7z M165.6,418.5
		c-3.6,1.2-7.8,1.5-12.1,0.9c0.5-4.3,1.5-8.6,3.4-12.4c1.9-3.8,4.6-7,8.3-8.7c7-3.4,13.1-3.3,12.3,5.3
		C176.8,411.1,172.8,416.2,165.6,418.5L165.6,418.5z M137.8,427.6c-8.6-5.2-14.1-11.2-17.1-17.6c-8.2-17,1.3-42.5,20.2-46.5
		c6.5,4.2,4.3,8.6,0.2,13.7c-4.3,1.6-7.6,4.8-9.6,8.6c-4.8,9-3,21.6,6.1,27.1C137.1,418.1,137.2,423,137.8,427.6L137.8,427.6z"/>
	<path fill="#663300" d="M974.8,943.8c5.4-6.6,8.5-16.2,4.9-24.4c-1.7-3.9-6.8-8.6-11-10c-6.8-2.2-9.9,6.5-10.4,11.9
		c-0.9,9.6,6.1,18,13.4,23.4c5.8,4.3,12.4,7.1,16.8,7.5c4,0.4,9.4,0.7,14.4-0.9c5.1-1.7,9.6-5.4,11.4-12.9c4.5-4.7,8.6-7.3,13.6-1.4
		c-0.8,11.5-8,20.1-18.7,24c-36.6,13.3-91.8-34.3-53.4-59c18.6-12,33.3,2.4,38.3,21c2.6,9.6-1.4,19.3-7.9,26.5
		C982.8,948.4,978.7,946.5,974.8,943.8L974.8,943.8z M924.5,945.8c7.7-3.9,14.3-11.3,14.3-20.4c0-4.3-2.7-10.6-5.9-13.6
		c-5.3-4.7-11.8,2-14.3,6.6c-2.3,4.1-2.8,8.8-2.1,13.5c0.7,4.6,2.5,9.2,4.9,13.3c3.6,6.3,8.5,11.5,12.3,13.6
		c4.1,2.3,10.8,5,17.6,4.1c4.4-0.5,8.9-2.6,12.6-7.1c3.8,2.3,7.7,4.2,11.5,5.7c-5.6,9.7-15.4,14.3-26.4,13.5
		c-20.3-1.4-36.2-18.7-44.2-36.1c-6.4-14-3.6-28.4,9.3-35.9c10-5.8,24.3-5.5,32,4.3c-8.1,11.1-7.2,24.5,1.6,35.1
		c-3.3,5.7-9,10.1-14.9,12.7C930,953.3,927.1,949.9,924.5,945.8L924.5,945.8z M961.8,954.7c-3.3,3.8-7.1,5.6-10.8,6.1
		c-6,0.7-12-1.6-15.9-3.7c5.7-2.8,11-7,14.3-12.4C952.9,948.3,957.5,951.9,961.8,954.7L961.8,954.7z M972.8,942.4
		c-6.4-4.8-12.8-12.3-12-20.9c0.3-3.4,2.3-11.4,7.2-9.8c3.5,1.1,8,5.4,9.4,8.6C980.7,927.8,977.6,936.5,972.8,942.4L972.8,942.4z
		 M1002.1,948.9c-4.4,1.5-9.5,1.2-13.2,0.9c6.4-7.7,10.1-17.6,7.5-27.6c-5.4-20.3-21.9-35.3-42-22.5c-2.5,1.6-4.8,3.6-6.8,5.9
		c-5.5-6.7-14-9.4-22.4-8.5c-1.6-12.8-13.5-21.3-25.8-22.4c-20.2-1.7-29.6,13.9-31.7,31.6c-7.2-5.1-8.3-15.7-4.2-23.2
		c2-3.7,4.9-6.3,8.9-7.7c5.7-7,7.7-12.9-1.3-18.3c-21.1,3.9-32,31.3-22.9,50.1c3.5,7.2,9.8,14,19.8,19.6
		c1.9,11.9,7.3,23.7,16.8,31.4c9.5,7.6,21.4,9.5,32.5,4c8.3,8.4,19.4,14.8,31.4,15.6c12.1,0.8,22.9-4.4,28.8-15.2
		c10.3,3.5,21.9,4.3,32.2,0.6c12.1-4.4,19.6-14.1,20.4-27.1c-6.5-8.2-12.1-5.6-18.3,1C1010.7,942.8,1007.8,947,1002.1,948.9
		L1002.1,948.9z M883.4,917.9c5.9,0.8,12.2,0,17.4-3c-1.7,4.5-2.3,9.6-1.3,15.4c-4.3,1.2-10.5,0.9-14.8,0.1
		C883.6,927.2,883.1,922.7,883.4,917.9L883.4,917.9z M909.3,903.5c0.3-1.2,0.5-2.4,0.6-3.6c1-10.6-7.2-11.9-15.8-7.7
		c-4.2,2-7.3,5.6-9.4,9.8c-2.1,4.2-3.2,9-3.6,13.7c-0.7,7.3,0.3,14.3,2.2,18.3c1.7,3.5,4.2,8.5,8.1,12c3.9,3.5,9.1,5.5,16.2,3.4
		c2.5,4,5.2,7.6,8.2,10.8c-10,4.6-20.6,2.8-29.1-4.1c-24.1-19.4-24.7-82.3,12.7-79c11.1,0.9,22.1,8.6,23.5,20.3
		C917.9,898.4,913.2,900.5,909.3,903.5L909.3,903.5z M906.3,947.2c-11,2.8-16.4-5.5-20.6-14.1c4.4,0.6,10,0.8,14.3-0.4
		C901.2,937.8,903.7,942.8,906.3,947.2L906.3,947.2z M923.3,943.7c-2.1-3.7-3.7-7.9-4.3-12c-0.6-4.2-0.2-8.3,1.8-11.9
		c1.6-2.9,6.7-9.4,10.6-6c2.8,2.4,5.1,8.2,5.1,11.7C936.4,933.6,930.1,940.2,923.3,943.7L923.3,943.7z M895.6,914.6
		c-3.6,1.2-7.7,1.5-12,0.9c0.5-4.3,1.5-8.6,3.4-12.4c1.9-3.8,4.6-7,8.3-8.7c7-3.4,13.1-3.3,12.3,5.3
		C906.8,907.2,902.9,912.2,895.6,914.6L895.6,914.6z M867.8,923.6c-8.6-5.2-14.1-11.3-17.1-17.6c-8.2-17,1.3-42.5,20.2-46.5
		c6.5,4.2,4.3,8.6,0.2,13.6c-4.3,1.7-7.6,4.8-9.6,8.7c-4.8,9-3,21.6,6.1,27.1C867.2,914.1,867.3,919,867.8,923.6L867.8,923.6z"/>
	<path fill="#663300" d="M349.2,974.9c-1.3,1.9-2.8,2.6-4.5,5.1h-3.9c2.6-2.5,4.8-4.3,6.5-6.8c-3.4-2.6-7.3-4.9-11.3-6.1
		c-4.1-1.2-8.2-1.5-12,0c-3.2,1.2-10.3,5.4-7.5,9.7c0.7,1,1.7,2,2.9,3.2h-3.7c-0.5-1.2-0.9-1.3-1.3-1.9c-3.9-5.9,3.6-11.4,8.6-13.3
		c4.4-1.7,9.1-1.6,13.6-0.2c4.4,1.4,8.7,4,12.5,6.9c3.3,2.6,6.2,4.8,8.3,8.5h-3.1C352.9,977.5,351.1,976.5,349.2,974.9L349.2,974.9z
		 M369.5,980c-5.5-11.1-14.6-19.6-24.2-25.8c-12.9-8.4-27.6-7.5-36.9,4.2c-4.7,5.9-7.1,14.2-5.7,21.6h-2.5
		c-0.6-3.7-0.4-7.8,0.6-11.6c-12.5-3.4-19.2-16.5-18.5-28.8c1.2-20.3,18-27.4,35.8-26.8c-4.1-7.9-14.3-10.4-22.3-7.5
		c-4,1.4-7,4-9,7.7c-7.8,4.7-13.9,5.8-18-3.9c6.9-20.4,35.6-27.1,52.9-15.4c6.6,4.4,12.4,11.6,16.6,22.4
		c11.4,3.6,22.4,10.7,28.6,21.2c6.2,10.5,6.3,22.7-0.7,32.9c2.2,3,4.3,6.1,5.9,9.8H369.5z M327.5,929.8c0,5.9-1.7,12.1-5.4,16.8
		c4.7-1.1,9.8-0.9,15.4,0.9c1.8-4.1,2.4-10.3,2.3-14.7C336.6,931.4,332.2,930.3,327.5,929.8L327.5,929.8z M309.5,953.4
		c-1.2,0.1-2.5,0.2-3.7,0.1c-10.6-0.6-10.7-8.8-5.4-16.8c2.7-3.9,6.6-6.4,11.1-7.9c4.4-1.4,9.3-1.9,14.1-1.6
		c7.3,0.4,14.1,2.4,17.7,4.9c3.3,2.2,7.8,5.4,10.7,9.7c2.9,4.3,4.2,9.8,1.1,16.5c3.6,3,6.8,6.3,9.5,9.6c6.1-9.3,5.7-20,0.2-29.4
		c-15.7-26.7-77.9-36.2-80.1,1.2c-0.6,11.1,5.4,23.2,16.7,26.2C303.1,961.2,305.9,956.8,309.5,953.4L309.5,953.4z M353.2,956.6
		c4.3-10.5-3.1-17.1-11-22.4c0,4.4-0.7,10-2.4,14.1C344.6,950.3,349.1,953.4,353.2,956.6L353.2,956.6z M322.4,941.4
		c1.7-3.4,2.6-7.5,2.6-11.8c-4.3-0.2-8.7,0.2-12.7,1.5c-4,1.3-7.5,3.5-9.8,7c-4.4,6.4-5.1,12.5,3.4,12.9
		C313.5,951.4,319,948.2,322.4,941.4L322.4,941.4z M335.3,915.2c-3.9-9.2-9.1-15.5-14.9-19.5c-15.7-10.6-42.2-4.8-48.9,13.3
		c3.2,7,7.9,5.5,13.5,2.2c2.3-4.1,5.9-6.8,10-8.3c9.6-3.5,21.8,0.1,25.9,10C326.1,913.2,330.8,914,335.3,915.2L335.3,915.2z"/>
	<path fill="#663300" d="M1400,874.4c-1-1.7-3.4-3.9-4.5-5.8c-2.3-4.1-2.7-8.8-2-13.5c0.7-4.6,2.3-9.2,4.7-13.3
		c0.6-1.1,1.8-2.1,1.8-3.1v4.7c-1,3.8-3.5,7.9-4.1,12.1c-0.6,4.2-0.3,8.3,1.7,11.9c0.6,1,1.4,2.3,2.4,3.6V874.4z M1400,823.2
		c-7,6.8-14.1,15.8-18.2,24.9c-6.4,14-3.7,28.4,9.2,35.9c2.8,1.6,7,2.8,9,3.4v9.8c-3,8.9-13.7,14.6-23.5,15.5
		c-20.2,1.7-29.5-13.8-31.6-31.6c-7.2,5.1-8.2,15.7-4.2,23.2c2,3.7,5,6.3,9,7.8c5.7,7,7.7,12.8-1.3,18.3
		c-21.1-3.9-31.9-31.3-22.8-50.1c3.5-7.1,9.8-14,19.8-19.6c2-11.8,7.4-23.7,16.8-31.3c9.5-7.7,21.2-9.5,32.2-4.1
		c1.8-1.8,4.5-3.5,5.5-5.1V823.2z M1360.6,869.2c5.9-0.8,12.2,0,17.4,3c-1.7-4.4-2.3-9.6-1.3-15.3c-4.3-1.2-10.5-0.9-14.8-0.1
		C1360.8,860,1360.3,864.5,1360.6,869.2L1360.6,869.2z M1386.5,883.7c0.3,1.2,0.5,2.4,0.6,3.6c1,10.6-7.2,11.9-15.8,7.7
		c-4.2-2.1-7.3-5.6-9.4-9.9c-2.1-4.2-3.2-9-3.6-13.7c-0.7-7.2,0.3-14.3,2.2-18.2c1.7-3.6,4.2-8.5,8.1-12c3.9-3.5,9.1-5.5,16.2-3.4
		c2.5-4.1,5.2-7.7,8.2-10.8c-10-4.7-20.6-2.8-29.1,4.1c-24.1,19.4-24.7,82.3,12.7,79.1c11.1-1,22.1-8.6,23.5-20.3
		C1395.1,888.9,1390.4,886.7,1386.5,883.7L1386.5,883.7z M1383.4,840c-11-2.8-16.4,5.5-20.6,14.1c4.4-0.6,10-0.8,14.3,0.4
		C1378.4,849.4,1380.9,844.5,1383.4,840L1383.4,840z M1372.8,872.6c-3.6-1.2-7.8-1.5-12.1-0.9c0.5,4.3,1.5,8.6,3.4,12.4
		c1.9,3.8,4.6,6.9,8.3,8.7c7,3.4,13.1,3.3,12.3-5.2C1384,880,1380,875,1372.8,872.6L1372.8,872.6z M1345,863.6
		c-8.6,5.1-14.1,11.2-17.1,17.6c-8.2,17,1.3,42.4,20.2,46.4c6.5-4.2,4.3-8.6,0.2-13.6c-4.3-1.7-7.6-4.8-9.6-8.7
		c-4.8-9-3-21.6,6.1-27.1C1344.3,873.1,1344.4,868.2,1345,863.6L1345,863.6z"/>
	<path fill="#663300" d="M691.1,36.9c-7.4,4.4-17.2,6.1-24.9,1.3c-3.6-2.3-7.6-7.9-8.3-12.2c-1.2-7,7.9-8.9,13.3-8.6
		c9.7,0.5,16.9,8.6,21.2,16.6c3.5,6.4,5.2,13.3,5,17.7c-0.2,4-0.7,9.4-3,14.1c-2.4,4.8-6.7,8.7-14.5,9.4c-5.2,3.8-8.5,7.5-3.4,13.2
		c11.5,0.8,21-5,26.4-15C721.4,39,682.2-22.4,652.2,12c-14.5,16.7-2.4,33.3,15.3,40.9c9.2,3.9,19.3,1.3,27.3-4
		C694.5,45.5,693.2,41.2,691.1,36.9L691.1,36.9z M712.6,0c1.5,4.9,2.6,10.6,1,16.4c-1.2,4.3-3.8,8.4-8.9,11.5
		c1.8,4.2,3.1,8.3,4,12.2C719.1,36,725.1,27,725.9,16c0.4-5.5-0.4-11.1-2.1-16h2.5c1.6,4.9,2.4,10.7,2,16.2
		c-0.9,12.1-7.7,22-19.1,26.3c1.9,10.7,1.2,22.3-4.1,31.9c-6.1,11.4-16.8,17.4-29.7,16.3c-7.2-7.6-3.8-12.7,3.6-18
		c5.9-0.5,10.4-2.7,13.1-8.1c2.1-4.2,2.6-9.2,2.8-12.9c-8.6,5.2-18.9,7.5-28.4,3.4c-19.4-8.3-31.8-26.8-16.2-44.7
		c2-2.2,4.3-4.2,6.8-5.8c-1.3-1.4-2.4-3.3-3.3-4.6h2.9c0.7,1.2,1.6,2.3,2.6,3.3c3.5-1.8,7.1-3.3,10.6-3.3h5.4
		c6.8,1.2,13.3,4.1,18.5,9.9c4.9-2,9.3-6.2,12.6-9.9h3c-3.5,4.9-8.3,9.4-14,11.9c3.2,4,6,9.1,8.2,13.7c4.3-2.7,6.5-6.2,7.5-9.9
		c1.5-5.6,0.2-12-1.2-15.7H712.6z M690,34.7c-3.8-7-10.4-14.5-19-14.9c-3.4-0.2-11.5,0.6-10.7,5.7c0.6,3.6,4.2,8.7,7.2,10.6
		C674.4,40.4,683.4,38.7,690,34.7L690,34.7z"/>
	<path fill="#663300" d="M159,0c-0.8,4.9-2.8,9.8-5.8,13.8c-12.1,16.3-30,13.1-44.6,2.8c-0.9,8.8,6.3,16.6,14.6,18.5
		c4.1,1,8,0.5,11.7-1.6c9.1,0.4,14.7,2.8,12.9,13.1c-16.9,13.3-44.6,3.2-52.7-16.1C92,23.2,91,14,93.5,2.8C92.7,1.9,92,1.2,91.3,0
		h3.4c15,19.7,41.4,32.7,56.5,12.3c2.7-3.6,4.5-7.4,5.2-12.3H159z M144.7,0c-1.5,2.5-4.4,4.6-8.2,6.2c-4.3,1.8-9,1.8-13.6,0.6
		c-4.5-1.2-8.9-3.6-12.7-6.4C110,0.3,109.8,0,109.6,0h4.3c3,2.5,6.2,3.5,9.5,4.4c4.1,1.1,8.2,1.2,12-0.5c2.7-1.1,4.8-2.7,6.2-3.9
		H144.7z M95.5,5.1c-1.9,9.9-0.9,18,1.8,24.5c7.3,17.4,32.7,27.1,48.2,15.6c1.2-7.6-3.6-8.9-10.1-9.2c-4.1,2.1-8.6,2.4-12.8,1.5
		c-10-2.3-18.2-12-16.3-22.5C102.2,11.9,98.6,8.6,95.5,5.1L95.5,5.1z"/>
	<path fill="#663300" d="M634.4,306.4c5.4,6.7,8.5,16.2,4.9,24.4c-1.7,3.9-6.7,8.6-10.9,10c-6.8,2.2-9.9-6.6-10.4-11.9
		c-0.9-9.6,6.1-18,13.4-23.4c5.9-4.3,12.5-7.1,16.8-7.5c4-0.4,9.4-0.7,14.4,1c5,1.7,9.5,5.4,11.4,12.9c4.5,4.7,8.6,7.4,13.6,1.4
		c-0.8-11.5-8-20.1-18.7-24c-36.6-13.3-91.8,34.3-53.4,59.1c18.6,12,33.3-2.4,38.3-21c2.6-9.7-1.5-19.3-7.9-26.5
		C642.5,301.8,638.4,303.7,634.4,306.4L634.4,306.4z M584.2,304.4c7.6,3.9,14.3,11.3,14.3,20.3c0,4.3-2.7,10.6-5.9,13.6
		c-5.3,4.7-11.7-2-14.3-6.6c-2.3-4.1-2.8-8.8-2.1-13.5c0.7-4.6,2.5-9.2,4.9-13.3c3.6-6.4,8.5-11.5,12.3-13.7
		c4.1-2.3,10.8-4.9,17.5-4.1c4.5,0.6,8.9,2.6,12.6,7.1c3.8-2.3,7.7-4.3,11.6-5.7c-5.6-9.7-15.4-14.3-26.4-13.6
		c-20.3,1.4-36.2,18.8-44.2,36.2c-6.4,14-3.6,28.4,9.3,35.9c10,5.8,24.3,5.6,31.9-4.3c-8.1-11.1-7.2-24.5,1.6-35.1
		c-3.3-5.7-9-10-15-12.7C589.7,297,586.7,300.3,584.2,304.4L584.2,304.4z M621.4,295.5c-3.2-3.8-7-5.6-10.8-6
		c-6-0.7-12,1.6-15.9,3.7c5.7,2.8,10.9,7,14.3,12.4C612.6,301.9,617.1,298.3,621.4,295.5L621.4,295.5z M632.4,307.8
		c-6.4,4.8-12.8,12.4-12,20.9c0.3,3.4,2.3,11.3,7.2,9.8c3.5-1.2,8-5.4,9.4-8.7C640.3,322.4,637.3,313.7,632.4,307.8L632.4,307.8z
		 M661.8,301.3c-4.5-1.5-9.5-1.2-13.2-0.9c6.4,7.7,10.1,17.6,7.5,27.6c-5.4,20.3-21.9,35.3-42,22.4c-2.5-1.6-4.8-3.6-6.8-5.9
		c-5.4,6.7-13.9,9.4-22.4,8.5c-1.6,12.8-13.5,21.3-25.8,22.4c-20.2,1.7-29.6-13.8-31.6-31.6c-7.2,5.1-8.3,15.7-4.2,23.2
		c2,3.7,4.9,6.3,8.9,7.8c5.7,7,7.7,12.8-1.3,18.3c-21.1-3.9-32-31.3-22.9-50.1c3.5-7.1,9.8-14,19.8-19.6
		c1.9-11.8,7.3-23.7,16.8-31.3c9.5-7.7,21.4-9.5,32.5-4.1c8.3-8.4,19.4-14.8,31.4-15.6c12.1-0.8,22.9,4.4,28.8,15.1
		c10.3-3.5,21.9-4.3,32.2-0.6c12.1,4.4,19.6,14.1,20.4,27.1c-6.5,8.2-12.1,5.6-18.3-1C670.3,307.4,667.5,303.2,661.8,301.3
		L661.8,301.3z M543.1,332.2c5.8-0.8,12.2,0,17.4,3c-1.7-4.4-2.3-9.6-1.3-15.3c-4.3-1.2-10.5-0.9-14.8-0.1
		C543.3,323,542.8,327.5,543.1,332.2L543.1,332.2z M569,346.7c0.3,1.2,0.5,2.4,0.6,3.6c1,10.6-7.2,11.9-15.8,7.7
		c-4.3-2.1-7.3-5.6-9.4-9.9c-2.1-4.2-3.2-9-3.6-13.7c-0.7-7.2,0.3-14.3,2.2-18.2c1.7-3.6,4.2-8.5,8.1-12c3.8-3.5,9.1-5.5,16.2-3.4
		c2.5-4.1,5.3-7.7,8.2-10.8c-10-4.7-20.6-2.8-29.2,4.1c-24.1,19.4-24.6,82.3,12.7,79.1c11.1-1,22.2-8.6,23.6-20.3
		C577.6,351.9,572.9,349.7,569,346.7L569,346.7z M565.9,303c-11-2.8-16.5,5.5-20.6,14.1c4.4-0.6,10-0.8,14.3,0.4
		C560.9,312.4,563.3,307.5,565.9,303L565.9,303z M583,306.5c-2.1,3.8-3.7,7.9-4.3,12.1c-0.6,4.2-0.2,8.3,1.8,11.9
		c1.6,2.9,6.7,9.4,10.6,6c2.8-2.5,5.1-8.2,5.1-11.8C596.1,316.6,589.8,309.9,583,306.5L583,306.5z M555.3,335.6
		c-3.6-1.2-7.7-1.5-12-0.9c0.5,4.3,1.5,8.6,3.4,12.4c1.9,3.8,4.6,6.9,8.3,8.7c7,3.4,13.1,3.3,12.3-5.2
		C566.5,343,562.5,338,555.3,335.6L555.3,335.6z M527.5,326.6c-8.6,5.1-14.1,11.2-17.1,17.6c-8.2,17,1.3,42.4,20.2,46.4
		c6.5-4.2,4.3-8.6,0.2-13.6c-4.3-1.7-7.6-4.8-9.6-8.7c-4.9-9-3.1-21.6,6.1-27.1C526.8,336.1,526.9,331.2,527.5,326.6L527.5,326.6z"
		/>
</g>
<g>
	<path fill-rule="evenodd" clip-rule="evenodd" fill="#663300" d="M166.9,299.6c15.6,0,28.2,12.6,28.2,28.1
		c0,15.6-12.6,28.2-28.2,28.2c-15.5,0-28.1-12.6-28.1-28.2C138.8,312.2,151.4,299.6,166.9,299.6L166.9,299.6z M160.3,308.9
		c6.8,0,12.2,5.5,12.2,12.2c0,6.8-5.5,12.2-12.2,12.2s-12.2-5.5-12.2-12.2C148.1,314.4,153.5,308.9,160.3,308.9L160.3,308.9z"/>
	<path fill-rule="evenodd" clip-rule="evenodd" fill="#663300" d="M412.8,415.2c8.2,13.2,4,30.6-9.2,38.7
		c-13.2,8.2-30.6,4.1-38.7-9.2c-8.2-13.2-4-30.5,9.2-38.7C387.3,397.9,404.6,402,412.8,415.2L412.8,415.2z M401.4,414.4
		c3.6,5.7,1.8,13.3-4,16.8c-5.7,3.5-13.3,1.7-16.8-4c-3.5-5.7-1.7-13.3,4-16.8C390.3,406.9,397.8,408.7,401.4,414.4L401.4,414.4z"/>
	<path fill-rule="evenodd" clip-rule="evenodd" fill="#663300" d="M103.7,644c8.2,13.2,4.1,30.6-9.2,38.7
		c-13.3,8.2-30.6,4.1-38.7-9.2c-8.2-13.2-4.1-30.5,9.2-38.7C78.2,626.7,95.5,630.8,103.7,644L103.7,644z M92.3,643.2
		c3.5,5.7,1.7,13.3-4,16.8c-5.7,3.5-13.3,1.7-16.8-4c-3.5-5.8-1.7-13.3,4-16.8C81.3,635.7,88.8,637.5,92.3,643.2L92.3,643.2z"/>
	<path fill-rule="evenodd" clip-rule="evenodd" fill="#663300" d="M1076.9,704.9c4.5,7.4,2.2,17-5.1,21.6c-7.4,4.5-17,2.2-21.6-5.1
		c-4.5-7.4-2.2-17,5.1-21.6C1062.7,695.3,1072.3,697.5,1076.9,704.9L1076.9,704.9z M1070.5,704.4c2,3.2,1,7.4-2.2,9.4
		c-3.2,2-7.3,0.9-9.3-2.2c-2-3.2-1-7.4,2.2-9.3C1064.4,700.3,1068.6,701.3,1070.5,704.4L1070.5,704.4z"/>
	<path fill-rule="evenodd" clip-rule="evenodd" fill="#663300" d="M1359.3,605.9c8.3,2.3,13.2,10.9,10.9,19.2
		c-2.3,8.3-10.9,13.2-19.2,10.9c-8.3-2.3-13.2-10.9-10.9-19.2C1342.3,608.5,1350.9,603.6,1359.3,605.9L1359.3,605.9z M1354.3,609.9
		c3.6,1,5.7,4.8,4.7,8.4c-1,3.6-4.8,5.7-8.4,4.7c-3.6-1-5.7-4.8-4.7-8.4C1347,611,1350.7,608.9,1354.3,609.9L1354.3,609.9z"/>
	<path fill-rule="evenodd" clip-rule="evenodd" fill="#663300" d="M754.1,152.1c-8.6,0-15.6-7.1-15.6-15.7c0-8.6,7-15.6,15.7-15.6
		c8.6,0,15.6,7.1,15.6,15.7C769.8,145.1,762.8,152.1,754.1,152.1L754.1,152.1z M757.9,146.9c-3.8,0-6.8-3-6.8-6.8
		c0-3.7,3.1-6.8,6.8-6.8c3.7,0,6.8,3,6.8,6.8C764.7,143.9,761.6,146.9,757.9,146.9L757.9,146.9z"/>
	<path fill-rule="evenodd" clip-rule="evenodd" fill="#663300" d="M590.5,924c8.3,2.3,13.2,11,10.9,19.3c-2.3,8.3-11,13.2-19.3,10.9
		c-8.3-2.3-13.2-11-10.9-19.3S582.2,921.7,590.5,924L590.5,924z M585.5,927.9c3.6,1,5.7,4.8,4.7,8.4c-1,3.6-4.8,5.7-8.4,4.7
		c-3.6-1-5.7-4.7-4.7-8.4C578.2,929.1,581.9,927,585.5,927.9L585.5,927.9z"/>
	<path fill-rule="evenodd" clip-rule="evenodd" fill="#663300" d="M1316.9,949.9c15.5,0,28.1,12.6,28.1,28.1c0,0.7,0,2-0.1,2h-26.1
		c2.2-2,3.6-5.3,3.6-8.6c0-6.8-5.5-12.2-12.2-12.2s-12.2,5.5-12.2,12.2c0,3.4,1.4,6.6,3.6,8.6h-12.8c0,0-0.1-1.3-0.1-2
		C1288.8,962.5,1301.4,949.9,1316.9,949.9L1316.9,949.9z"/>
	<path fill-rule="evenodd" clip-rule="evenodd" fill="#663300" d="M1400,765.7c-2,0.7-5,0.7-7.8-0.1c-8.3-2.3-13.4-10.9-11.1-19.2
		c2.3-8.3,11.9-13.1,18.9-11v8.7c0-2.2-2-4.1-4.4-4.7c-3.6-1-7.2,1.1-8.2,4.7c-1,3.6,0.8,7.3,4.4,8.4c3.6,1,7.1-1.1,8.1-4.7V765.7z"
		/>
	<path fill-rule="evenodd" clip-rule="evenodd" fill="#663300" d="M1117.4,356.6c4.5,7.3,2.2,17-5.1,21.5c-7.4,4.5-17,2.2-21.6-5.1
		c-4.5-7.3-2.2-17,5.1-21.5C1103.2,346.9,1112.9,349.2,1117.4,356.6L1117.4,356.6z M1111.1,356.1c2,3.2,1,7.4-2.2,9.3
		c-3.2,2-7.3,1-9.3-2.2c-2-3.2-1-7.4,2.2-9.4C1104.9,351.9,1109.1,352.9,1111.1,356.1L1111.1,356.1z"/>
	<path fill-rule="evenodd" clip-rule="evenodd" fill="#663300" d="M794.1,458.8c4.5,7.3,2.2,17-5.1,21.5c-7.3,4.5-17,2.2-21.6-5.1
		c-4.5-7.3-2.2-17,5.1-21.5C779.9,449.1,789.5,451.4,794.1,458.8L794.1,458.8z M787.8,458.3c2,3.2,1,7.3-2.2,9.3
		c-3.2,2-7.4,1-9.4-2.2c-2-3.2-0.9-7.4,2.2-9.3C781.6,454.1,785.8,455.1,787.8,458.3L787.8,458.3z"/>
	<path fill-rule="evenodd" clip-rule="evenodd" fill="#663300" d="M604.5,87.8c15.6,0,28.2,12.6,28.2,28.1
		c0,15.5-12.6,28.2-28.2,28.2c-15.5,0-28.1-12.6-28.1-28.2C576.3,100.4,588.9,87.8,604.5,87.8L604.5,87.8z M597.8,97.1
		c6.8,0,12.2,5.5,12.2,12.2s-5.5,12.2-12.2,12.2s-12.2-5.5-12.2-12.2S591.1,97.1,597.8,97.1L597.8,97.1z"/>
	<path fill-rule="evenodd" clip-rule="evenodd" fill="#663300" d="M304.6,10.2c15.5,0,28.1,12.6,28.1,28.1
		c0,15.6-12.6,28.2-28.1,28.2c-15.6,0-28.2-12.6-28.2-28.2C276.4,22.8,289,10.2,304.6,10.2L304.6,10.2z M297.9,19.4
		c6.8,0,12.2,5.5,12.2,12.2c0,6.8-5.5,12.2-12.2,12.2s-12.2-5.5-12.2-12.2C285.7,24.9,291.1,19.4,297.9,19.4L297.9,19.4z"/>
	<path fill-rule="evenodd" clip-rule="evenodd" fill="#663300" d="M1100.1,453c15.5,0,28.1,12.6,28.1,28.1s-12.6,28.1-28.1,28.1
		c-15.6,0-28.2-12.6-28.2-28.1S1084.6,453,1100.1,453L1100.1,453z M1093.4,462.3c6.8,0,12.2,5.5,12.2,12.2c0,6.8-5.5,12.2-12.2,12.2
		s-12.2-5.5-12.2-12.2C1081.2,467.8,1086.7,462.3,1093.4,462.3L1093.4,462.3z"/>
	<path fill-rule="evenodd" clip-rule="evenodd" fill="#663300" d="M289.9,247.3c8.3,2.3,13.2,11,10.9,19.3
		c-2.3,8.3-10.9,13.2-19.2,10.9c-8.3-2.3-13.2-11-10.9-19.3C272.9,249.8,281.5,245,289.9,247.3L289.9,247.3z M284.9,251.2
		c3.6,1,5.7,4.8,4.7,8.4c-1,3.6-4.8,5.7-8.4,4.7c-3.6-1-5.7-4.7-4.7-8.4C277.6,252.3,281.3,250.2,284.9,251.2L284.9,251.2z"/>
	<path fill-rule="evenodd" clip-rule="evenodd" fill="#663300" d="M408.4,631.4c8.3,2.3,13.2,11,10.9,19.3
		c-2.3,8.3-11,13.2-19.3,10.9c-8.3-2.3-13.2-11-10.9-19.3C391.4,633.9,400.1,629.1,408.4,631.4L408.4,631.4z M403.4,635.3
		c3.6,1,5.7,4.8,4.7,8.4c-1,3.6-4.7,5.7-8.4,4.7c-3.6-1-5.7-4.7-4.7-8.4C396.1,636.5,399.8,634.4,403.4,635.3L403.4,635.3z"/>
	<path fill-rule="evenodd" clip-rule="evenodd" fill="#663300" d="M875.8,786.4c8.3,2.3,13.2,11,10.9,19.3s-11,13.2-19.3,10.9
		c-8.3-2.3-13.2-11-10.9-19.3C858.8,789,867.5,784.1,875.8,786.4L875.8,786.4z M870.8,790.4c3.6,1,5.7,4.8,4.7,8.4
		c-1,3.6-4.7,5.7-8.4,4.7c-3.6-1-5.7-4.8-4.7-8.4C863.5,791.5,867.2,789.4,870.8,790.4L870.8,790.4z"/>
	<path fill-rule="evenodd" clip-rule="evenodd" fill="#663300" d="M957.1,699.5c15.5,0,28.1,12.6,28.1,28.1s-12.6,28.1-28.1,28.1
		s-28.2-12.6-28.2-28.1S941.5,699.5,957.1,699.5L957.1,699.5z M950.4,708.8c6.8,0,12.2,5.5,12.2,12.2c0,6.8-5.5,12.2-12.2,12.2
		c-6.8,0-12.2-5.5-12.2-12.2C938.2,714.2,943.6,708.8,950.4,708.8L950.4,708.8z"/>
	<path fill-rule="evenodd" clip-rule="evenodd" fill="#663300" d="M733.6,229.3c4.5,7.4,2.3,17-5.1,21.6c-7.3,4.5-17,2.2-21.5-5.1
		c-4.5-7.4-2.2-17,5.1-21.6C719.4,219.7,729,222,733.6,229.3L733.6,229.3z M727.3,228.9c2,3.2,0.9,7.4-2.2,9.4
		c-3.2,2-7.4,0.9-9.3-2.2c-2-3.2-1-7.4,2.2-9.3C721.1,224.7,725.3,225.7,727.3,228.9L727.3,228.9z"/>
	<path fill-rule="evenodd" clip-rule="evenodd" fill="#663300" d="M873.8,531c8.3,2.3,13.2,11,10.9,19.3
		c-2.3,8.3-10.9,13.2-19.2,10.9c-8.3-2.3-13.2-11-10.9-19.3C856.8,533.6,865.5,528.7,873.8,531L873.8,531z M868.8,535
		c3.6,1,5.7,4.7,4.7,8.4c-1,3.6-4.8,5.7-8.4,4.7c-3.6-1-5.7-4.8-4.7-8.4C861.5,536.1,865.2,534,868.8,535L868.8,535z"/>
</g>
<g>
	<path fill="#663300" d="M908.8,650.7c4.6,8.1,1.7,18.4-6.4,23c-8.1,4.6-18.4,1.7-23-6.4c-4.6-8.1-1.7-18.4,6.4-23
		C893.9,639.7,904.2,642.6,908.8,650.7L908.8,650.7z M906.6,651.9c-3.9-6.9-12.7-9.4-19.7-5.5c-6.9,3.9-9.4,12.7-5.5,19.6
		c3.9,6.9,12.7,9.4,19.7,5.5C908.1,667.6,910.5,658.8,906.6,651.9L906.6,651.9z M898.5,650.5c2.2,3.8,0.8,8.7-3,11
		c-3.8,2.2-8.7,0.8-10.9-3c-2.2-3.9-0.8-8.7,3-11C891.4,645.3,896.3,646.6,898.5,650.5L898.5,650.5z M896.3,651.7
		c-1.5-2.7-4.9-3.6-7.6-2.1c-2.7,1.5-3.6,4.9-2.1,7.6c1.5,2.7,4.9,3.6,7.6,2.1C896.9,657.8,897.8,654.4,896.3,651.7L896.3,651.7z"/>
	<path fill="#663300" d="M227.4,898.7c4.6,8.1,1.7,18.4-6.4,23c-8.1,4.6-18.4,1.7-23-6.4c-4.6-8.1-1.7-18.4,6.4-23
		C212.5,887.7,222.8,890.6,227.4,898.7L227.4,898.7z M225.3,899.9c-3.9-6.9-12.7-9.4-19.6-5.5c-6.9,3.9-9.4,12.7-5.5,19.7
		c3.9,6.9,12.7,9.4,19.6,5.5C226.7,915.6,229.2,906.8,225.3,899.9L225.3,899.9z M217.1,898.5c2.2,3.8,0.8,8.7-3,10.9
		c-3.8,2.2-8.7,0.8-10.9-3c-2.2-3.8-0.8-8.7,3-10.9C210,893.3,214.9,894.6,217.1,898.5L217.1,898.5z M215,899.7
		c-1.5-2.7-4.9-3.6-7.6-2.1c-2.7,1.5-3.6,4.9-2.1,7.6c1.5,2.7,4.9,3.6,7.6,2.1C215.5,905.7,216.5,902.3,215,899.7L215,899.7z"/>
	<path fill="#663300" d="M145.1,601c4.6,8.1,1.7,18.4-6.4,23c-8.1,4.6-18.4,1.7-23-6.4c-4.6-8.1-1.7-18.4,6.4-23
		C130.2,590,140.5,592.9,145.1,601L145.1,601z M143,602.2c-3.9-6.9-12.7-9.4-19.6-5.5c-6.9,3.9-9.4,12.7-5.5,19.7
		c3.9,6.9,12.7,9.4,19.6,5.5C144.4,617.9,146.9,609.1,143,602.2L143,602.2z M134.8,600.8c2.2,3.8,0.8,8.7-3,10.9
		c-3.9,2.2-8.8,0.8-11-3c-2.2-3.8-0.8-8.7,3-10.9S132.6,596.9,134.8,600.8L134.8,600.8z M132.7,602c-1.5-2.7-4.9-3.6-7.6-2.1
		c-2.7,1.5-3.6,4.9-2.1,7.6s4.9,3.6,7.6,2.1C133.2,608.1,134.2,604.7,132.7,602L132.7,602z"/>
	<path fill="#663300" d="M60.6,488.5c4.6,8.1,1.7,18.4-6.4,23c-8.1,4.6-18.4,1.7-23-6.4c-4.6-8.1-1.7-18.4,6.4-23
		S56.1,480.3,60.6,488.5L60.6,488.5z M58.5,489.6c-3.9-6.9-12.7-9.4-19.6-5.5c-6.9,3.9-9.4,12.7-5.5,19.6c3.9,6.9,12.7,9.4,19.6,5.5
		C60,505.4,62.4,496.6,58.5,489.6L58.5,489.6z M50.4,488.2c2.2,3.8,0.8,8.7-3,10.9c-3.9,2.2-8.8,0.8-11-3s-0.8-8.7,3-10.9
		C43.3,483,48.2,484.4,50.4,488.2L50.4,488.2z M48.2,489.4c-1.5-2.7-4.9-3.6-7.6-2.1c-2.7,1.5-3.6,4.9-2.1,7.6
		c1.5,2.7,4.9,3.6,7.6,2.1C48.8,495.5,49.7,492.1,48.2,489.4L48.2,489.4z"/>
	<path fill="#663300" d="M990.4,152.2c4.6,8.1,1.7,18.4-6.4,23c-8.1,4.6-18.4,1.7-23-6.4c-4.6-8.1-1.7-18.4,6.4-23
		C975.5,141.2,985.8,144.1,990.4,152.2L990.4,152.2z M988.2,153.4c-3.9-6.9-12.7-9.4-19.7-5.5c-6.9,3.9-9.3,12.7-5.5,19.7
		c3.9,6.9,12.7,9.3,19.7,5.5C989.7,169.1,992.2,160.3,988.2,153.4L988.2,153.4z M980.1,152c2.2,3.8,0.8,8.7-3,10.9
		c-3.8,2.2-8.7,0.8-10.9-3c-2.2-3.8-0.8-8.7,3-10.9C973,146.8,977.9,148.1,980.1,152L980.1,152z M977.9,153.2
		c-1.5-2.7-4.9-3.6-7.6-2.1c-2.7,1.5-3.6,4.9-2.1,7.6c1.5,2.7,4.9,3.6,7.6,2.1C978.5,159.3,979.5,155.9,977.9,153.2L977.9,153.2z"/>
	<path fill="#663300" d="M542.4,43.2c-4.6-8.1-1.7-18.4,6.4-23c8.1-4.6,18.4-1.7,23,6.4c4.5,8.1,1.7,18.4-6.4,23
		S547,51.3,542.4,43.2L542.4,43.2z M544.5,42c3.9,6.9,12.7,9.4,19.6,5.5s9.4-12.7,5.5-19.6c-3.9-6.9-12.7-9.4-19.6-5.5
		C543.1,26.2,540.6,35,544.5,42L544.5,42z M552.7,43.4c-2.2-3.9-0.8-8.8,3-11c3.8-2.2,8.7-0.8,10.9,3c2.2,3.8,0.8,8.7-3,11
		C559.8,48.6,554.9,47.2,552.7,43.4L552.7,43.4z M554.8,42.2c1.5,2.7,4.9,3.6,7.6,2.1c2.7-1.5,3.6-4.9,2.1-7.6
		c-1.5-2.7-4.9-3.6-7.6-2.1C554.3,36.1,553.3,39.5,554.8,42.2L554.8,42.2z"/>
	<path fill="#663300" d="M244.5,53c4.6,8.1,1.7,18.4-6.4,23c-8.1,4.5-18.4,1.7-23-6.4s-1.7-18.4,6.4-23
		C229.6,42,239.9,44.9,244.5,53L244.5,53z M242.3,54.2c-3.9-6.9-12.7-9.4-19.6-5.5s-9.4,12.7-5.5,19.6c3.9,6.9,12.7,9.4,19.6,5.5
		C243.8,69.9,246.3,61.1,242.3,54.2L242.3,54.2z M234.2,52.8c2.2,3.9,0.8,8.8-3,11c-3.8,2.2-8.7,0.8-10.9-3c-2.2-3.8-0.8-8.7,3-11
		C227.1,47.5,232,48.9,234.2,52.8L234.2,52.8z M232.1,54c-1.5-2.7-4.9-3.6-7.6-2.1c-2.7,1.5-3.6,4.9-2.1,7.6
		c1.5,2.7,4.9,3.6,7.6,2.1C232.6,60,233.6,56.6,232.1,54L232.1,54z"/>
	<path fill="#663300" d="M482.4,916.8c4.6,8.1,1.7,18.4-6.4,23c-8.1,4.6-18.4,1.7-23-6.4c-4.6-8.1-1.7-18.4,6.4-23
		C467.5,905.8,477.8,908.7,482.4,916.8L482.4,916.8z M480.2,918c-3.9-6.9-12.7-9.4-19.6-5.5c-6.9,3.9-9.4,12.7-5.5,19.7
		c3.9,6.9,12.7,9.3,19.6,5.5C481.7,933.8,484.2,924.9,480.2,918L480.2,918z M472.1,916.6c2.2,3.8,0.8,8.7-3,10.9
		c-3.9,2.2-8.8,0.8-11-3c-2.2-3.8-0.8-8.7,3-10.9C465,911.4,469.9,912.7,472.1,916.6L472.1,916.6z M470,917.8
		c-1.5-2.7-4.9-3.6-7.6-2.1c-2.7,1.5-3.6,4.9-2.1,7.6c1.5,2.7,4.9,3.6,7.6,2.1C470.5,923.9,471.5,920.5,470,917.8L470,917.8z"/>
	<path fill="#663300" d="M1347.6,362.9c4.6,8.1,1.7,18.4-6.4,23c-8.1,4.6-18.4,1.7-23-6.4c-4.6-8.1-1.7-18.4,6.4-23
		C1332.7,351.9,1343,354.8,1347.6,362.9L1347.6,362.9z M1345.4,364.1c-3.9-6.9-12.7-9.4-19.7-5.5c-6.9,3.9-9.3,12.7-5.5,19.7
		c3.9,6.9,12.7,9.4,19.7,5.5C1346.9,379.8,1349.4,371,1345.4,364.1L1345.4,364.1z M1337.3,362.7c2.2,3.8,0.8,8.7-3,10.9
		c-3.8,2.2-8.7,0.8-10.9-3c-2.2-3.9-0.8-8.7,3-11C1330.2,357.5,1335.1,358.8,1337.3,362.7L1337.3,362.7z M1335.1,363.9
		c-1.5-2.7-4.9-3.6-7.6-2.1c-2.7,1.5-3.6,4.9-2.1,7.6c1.5,2.7,4.9,3.6,7.6,2.1C1335.7,370,1336.7,366.6,1335.1,363.9L1335.1,363.9z"
		/>
	<path fill="#663300" d="M1348.7,792.5c4.6,8.1,1.7,18.4-6.4,23c-8.1,4.6-18.4,1.7-23-6.4c-4.6-8.1-1.7-18.4,6.4-23
		S1344.1,784.3,1348.7,792.5L1348.7,792.5z M1346.6,793.6c-3.9-6.9-12.7-9.3-19.6-5.5c-6.9,3.9-9.4,12.7-5.5,19.7
		c3.9,6.9,12.7,9.4,19.7,5.5C1348.1,809.4,1350.5,800.6,1346.6,793.6L1346.6,793.6z M1338.4,792.2c2.2,3.8,0.8,8.7-3,10.9
		c-3.8,2.2-8.7,0.8-10.9-3c-2.2-3.8-0.8-8.7,3-10.9C1331.4,787,1336.3,788.4,1338.4,792.2L1338.4,792.2z M1336.3,793.4
		c-1.5-2.7-4.9-3.6-7.6-2.1c-2.7,1.5-3.6,4.9-2.1,7.6c1.5,2.7,4.9,3.6,7.6,2.1C1336.9,799.5,1337.8,796.1,1336.3,793.4L1336.3,793.4
		z"/>
	<path fill="#663300" d="M1083.2,31.2c4.6,8.1,1.7,18.4-6.4,23c-8.1,4.6-18.4,1.7-23-6.4c-4.6-8.1-1.7-18.4,6.4-23
		C1068.3,20.2,1078.6,23.1,1083.2,31.2L1083.2,31.2z M1081,32.4c-3.9-6.9-12.7-9.3-19.7-5.5c-6.9,3.9-9.4,12.7-5.5,19.7
		c3.9,6.9,12.7,9.4,19.7,5.5C1082.5,48.1,1084.9,39.3,1081,32.4L1081,32.4z M1072.9,31c2.2,3.8,0.8,8.7-3,10.9
		c-3.8,2.2-8.7,0.8-10.9-3c-2.2-3.8-0.8-8.7,3-10.9C1065.8,25.8,1070.7,27.1,1072.9,31L1072.9,31z M1070.8,32.2
		c-1.5-2.7-4.9-3.6-7.6-2.1c-2.7,1.5-3.6,4.9-2.1,7.6s4.9,3.6,7.6,2.1C1071.3,38.2,1072.3,34.8,1070.8,32.2L1070.8,32.2z"/>
	<path fill="#663300" d="M38.2,805.6c-4.6-8.1-1.7-18.4,6.4-23s18.4-1.7,23,6.4c4.6,8.1,1.7,18.4-6.4,23
		C53.1,816.6,42.8,813.7,38.2,805.6L38.2,805.6z M40.4,804.4c3.9,6.9,12.7,9.4,19.7,5.5s9.4-12.7,5.5-19.7
		c-3.9-6.9-12.7-9.3-19.7-5.5C38.9,788.7,36.5,797.5,40.4,804.4L40.4,804.4z M48.5,805.8c-2.2-3.8-0.8-8.7,3-10.9
		c3.8-2.2,8.7-0.8,10.9,3c2.2,3.8,0.8,8.7-3,10.9C55.6,811.1,50.7,809.7,48.5,805.8L48.5,805.8z M50.7,804.6
		c1.5,2.7,4.9,3.6,7.6,2.1s3.6-4.9,2.1-7.6c-1.5-2.7-4.9-3.6-7.6-2.1C50.1,798.5,49.2,801.9,50.7,804.6L50.7,804.6z"/>
	<path fill="#663300" d="M951.5,329.6c4.6,8.1,1.7,18.4-6.4,23c-8.1,4.6-18.4,1.7-23-6.4s-1.7-18.4,6.4-23
		C936.6,318.6,946.9,321.5,951.5,329.6L951.5,329.6z M949.4,330.8c-3.9-6.9-12.7-9.4-19.7-5.5c-6.9,3.9-9.3,12.7-5.5,19.7
		c3.9,6.9,12.7,9.3,19.7,5.5C950.8,346.5,953.3,337.7,949.4,330.8L949.4,330.8z M941.2,329.4c2.2,3.8,0.8,8.7-3,10.9
		c-3.8,2.2-8.7,0.8-10.9-3c-2.2-3.8-0.8-8.7,3-10.9C934.1,324.2,939,325.5,941.2,329.4L941.2,329.4z M939.1,330.6
		c-1.5-2.7-4.9-3.6-7.6-2.1c-2.7,1.5-3.6,4.9-2.1,7.6c1.5,2.7,4.9,3.6,7.6,2.1C939.6,336.7,940.6,333.3,939.1,330.6L939.1,330.6z"/>
</g>
<g>
	<path fill-rule="evenodd" clip-rule="evenodd" fill="#663300" d="M589.1,202.3c0.6,4.4,1.7,11.1,3.1,17.6
		c1.2,5.9,2.5,11.5,3.5,14.8c0.8,2.5,3.7,4,7.3,4.5c2.6,0.4,5.5,0.4,8.3,0c2.8-0.5,5.4-1.3,7.5-2.4c2.5-1.4,4.2-3.2,4.1-5.4
		c-0.2-5.5-1.8-14.9-2.9-21.4c-0.3-2.1-0.7-3.9-0.8-5.1c-0.6-4.3-7.3-7.1-14.3-7.9c-2.2-0.3-4.5-0.3-6.6-0.2c-2.1,0.1-4,0.5-5.5,1.1
		C590.3,198.7,588.8,200.2,589.1,202.3L589.1,202.3z M583.1,207.5c1.2,8.9,4.5,27.2,6.8,34.5c3.1,10.1,32.1,6.6,31.1-3.9v-0.2
		c2-1.7,4.2-4,4.1-6.6c-0.2-5.6-1.6-15.2-2.7-21.7c-0.3-2.1-0.6-3.8-0.8-5.1c-0.8-5.6-8.5-9.1-16.4-10c-2.4-0.3-4.8-0.4-7.1-0.2
		c-2.3,0.2-4.4,0.6-6.2,1.3c-3.3,1.3-5.4,3.4-5.3,6.4C584.2,203.1,582.7,205,583.1,207.5L583.1,207.5z"/>
	<path fill-rule="evenodd" clip-rule="evenodd" fill="#663300" d="M1244.3,375.5c4.3-0.9,11-2.6,17.3-4.4c5.8-1.6,11.3-3.4,14.5-4.7
		c2.4-0.9,3.6-4,4-7.7c0.2-2.6,0-5.5-0.7-8.2c-0.6-2.8-1.6-5.4-2.9-7.3c-1.6-2.4-3.5-3.9-5.7-3.6c-5.4,0.6-14.8,2.9-21.1,4.5
		c-2.1,0.5-3.8,0.9-5,1.2c-4.2,0.9-6.5,7.9-6.8,14.9c-0.1,2.3,0,4.5,0.3,6.6c0.3,2.1,0.8,3.9,1.5,5.4
		C1240.7,374.5,1242.3,375.9,1244.3,375.5L1244.3,375.5z M1250,381.1c8.9-1.8,26.8-6.8,33.9-9.7c9.8-3.9,4.2-32.2-6.3-31l-0.2,0
		c-1.9-2.3-4.3-3.6-7-3.3c-5.6,0.6-15,2.9-21.5,4.5c-2,0.5-3.7,0.9-5,1.2c-5.5,1.3-8.4,9.2-8.8,17.2c-0.1,2.4,0,4.9,0.3,7.1
		c0.4,2.3,0.9,4.4,1.7,6.1c1.5,3.2,3.7,5.1,6.8,4.8C1245.5,380.3,1247.5,381.6,1250,381.1L1250,381.1z"/>
	<path fill-rule="evenodd" clip-rule="evenodd" fill="#663300" d="M391.2,522.4c4.3-0.9,11-2.6,17.3-4.4c5.8-1.6,11.3-3.4,14.5-4.7
		c2.4-0.9,3.6-4,4-7.7c0.2-2.6,0-5.5-0.7-8.2c-0.6-2.8-1.6-5.4-2.9-7.3c-1.6-2.4-3.5-3.9-5.7-3.6c-5.4,0.6-14.8,2.9-21.1,4.5
		c-2.1,0.5-3.8,0.9-5,1.2c-4.2,0.9-6.5,7.9-6.8,14.9c-0.1,2.3,0,4.5,0.3,6.6c0.3,2.1,0.8,3.9,1.5,5.4
		C387.6,521.5,389.2,522.9,391.2,522.4L391.2,522.4z M397,528c8.8-1.8,26.8-6.8,33.9-9.7c9.8-3.9,4.2-32.2-6.3-31l-0.2,0
		c-1.9-2.3-4.3-3.6-7-3.3c-5.6,0.6-15,2.9-21.5,4.5c-2,0.5-3.7,0.9-5,1.2c-5.5,1.3-8.4,9.2-8.8,17.2c-0.1,2.4,0,4.9,0.3,7.1
		c0.3,2.3,0.9,4.4,1.7,6.1c1.5,3.2,3.7,5.1,6.8,4.8C392.5,527.3,394.4,528.5,397,528L397,528z"/>
	<path fill-rule="evenodd" clip-rule="evenodd" fill="#663300" d="M115.7,303.2c-4.3-0.9-11-2.6-17.3-4.4
		c-5.8-1.6-11.3-3.4-14.5-4.7c-2.4-1-3.6-4-3.9-7.7c-0.2-2.6,0-5.5,0.7-8.3c0.7-2.7,1.7-5.3,3-7.3c1.5-2.4,3.5-3.9,5.7-3.7
		c5.4,0.6,14.7,2.9,21.1,4.5c2.1,0.5,3.8,0.9,5,1.2c4.2,0.9,6.5,7.8,6.8,14.9c0.1,2.3,0,4.5-0.3,6.6c-0.3,2-0.8,3.9-1.5,5.4
		C119.3,302.3,117.8,303.6,115.7,303.2L115.7,303.2z M110,308.8c-8.8-1.9-26.8-6.9-33.9-9.7c-9.8-3.9-4.2-32.2,6.3-31l0.2,0
		c1.9-2.3,4.3-3.6,6.9-3.4c5.6,0.6,15,3,21.5,4.5c2,0.5,3.7,0.9,5,1.2c5.5,1.2,8.4,9.2,8.7,17.2c0.1,2.4,0,4.9-0.3,7.1
		c-0.3,2.3-0.9,4.4-1.7,6.1c-1.5,3.1-3.7,5.1-6.8,4.8C114.5,308.1,112.5,309.3,110,308.8L110,308.8z"/>
	<path fill-rule="evenodd" clip-rule="evenodd" fill="#663300" d="M1052,667.6c-4.3-0.9-11-2.6-17.3-4.4c-5.8-1.6-11.3-3.4-14.5-4.7
		c-2.4-1-3.6-4-4-7.7c-0.2-2.6,0.1-5.5,0.7-8.3c0.6-2.7,1.6-5.3,3-7.3c1.5-2.4,3.5-3.9,5.7-3.7c5.4,0.6,14.7,2.9,21.1,4.5
		c2.1,0.5,3.9,0.9,5,1.2c4.2,0.9,6.5,7.8,6.9,14.9c0.1,2.3,0,4.5-0.3,6.6c-0.3,2-0.8,3.9-1.5,5.4
		C1055.6,666.6,1054.1,668,1052,667.6L1052,667.6z M1046.3,673.2c-8.8-1.9-26.8-6.9-33.9-9.7c-9.8-3.9-4.2-32.2,6.3-31l0.2,0
		c1.9-2.3,4.2-3.6,6.9-3.4c5.6,0.6,15,3,21.5,4.5c2,0.5,3.7,0.9,5,1.2c5.5,1.2,8.4,9.2,8.7,17.2c0.1,2.4,0,4.9-0.3,7.1
		c-0.3,2.3-0.9,4.4-1.7,6.1c-1.5,3.1-3.8,5.1-6.8,4.8C1050.8,672.4,1048.8,673.7,1046.3,673.2L1046.3,673.2z"/>
	<path fill-rule="evenodd" clip-rule="evenodd" fill="#663300" d="M597.8,808.4c4.3-0.9,11-2.6,17.3-4.4c5.8-1.6,11.3-3.4,14.5-4.7
		c2.4-1,3.6-4,3.9-7.7c0.2-2.6,0-5.5-0.7-8.3c-0.7-2.7-1.7-5.3-3-7.3c-1.5-2.4-3.5-3.9-5.7-3.7c-5.4,0.6-14.7,2.9-21.1,4.5
		c-2.1,0.5-3.8,0.9-5,1.2c-4.3,0.9-6.5,7.8-6.9,14.9c-0.1,2.3,0,4.5,0.3,6.6c0.3,2,0.8,3.9,1.5,5.4
		C594.2,807.4,595.8,808.8,597.8,808.4L597.8,808.4z M603.5,814c8.8-1.9,26.8-6.9,33.9-9.7c9.8-3.9,4.2-32.2-6.3-31l-0.2,0
		c-1.9-2.3-4.3-3.6-6.9-3.4c-5.6,0.6-15,3-21.5,4.5c-2,0.5-3.7,0.9-5,1.2c-5.5,1.2-8.4,9.2-8.7,17.2c-0.1,2.4,0,4.8,0.3,7.1
		c0.3,2.3,0.9,4.4,1.7,6.1c1.5,3.1,3.8,5.1,6.8,4.8C599.1,813.2,601,814.5,603.5,814L603.5,814z"/>
	<path fill-rule="evenodd" clip-rule="evenodd" fill="#663300" d="M873.3,204.6c4.3-0.9,11-2.6,17.3-4.4c5.8-1.7,11.3-3.4,14.5-4.7
		c2.4-1,3.6-4,3.9-7.7c0.2-2.6,0-5.5-0.7-8.2c-0.7-2.7-1.7-5.3-3-7.3c-1.5-2.4-3.5-3.9-5.7-3.7c-5.4,0.6-14.7,2.9-21.1,4.5
		c-2.1,0.5-3.8,1-5,1.2c-4.2,1-6.5,7.9-6.8,14.9c-0.1,2.3,0,4.5,0.3,6.6c0.3,2.1,0.8,4,1.5,5.5C869.7,203.6,871.3,205,873.3,204.6
		L873.3,204.6z M879,210.2c8.8-1.9,26.8-7.1,33.9-9.9c9.8-3.9,4.2-32.2-6.3-31.2h-0.2c-1.9-1-4.3-3.4-6.9-3.1
		c-5.6,0.6-15,3.1-21.5,4.7c-2,0.5-3.7,1-5,1.3c-5.5,1.2-8.4,9.2-8.7,17.2c-0.1,2.4,0,4.9,0.3,7.2c0.3,2.3,0.9,4.4,1.7,6.1
		c1.5,3.1,3.7,5.1,6.8,4.8C874.6,209.4,876.5,210.7,879,210.2L879,210.2z"/>
</g>
<g>
	<path fill="#663300" d="M1195,258.8l-48.6,489.8l-18.1-1.9l54.6-489.1L1195,258.8z M1157.4,586.5c-3.2-2.3-5.6-2.2-3.8,0.5
		c12,18.2-10.3,3.8-0.6,13.3c1.3,1.3,2.4,2.4,2.4,3.4c0,1.9-2.5,1.9-4,3c-2.6,1.9-1.3,3,0.7,3.9c0.4,0.2,0.9,0.4,1.3,0.6
		c1,0.4,1.7,0.7,1.6,1.2c-0.4,2.8-3.1,1.2-4.1,2.3l-2.6,32.4l1.5-34c0.1-1.1,4-0.7,1.9-1.6c-2.8-1.3-5.8-3.8-2.3-6.4
		c1.3-0.9,5.1-1,5.1-1.4c0-0.6-1-1.6-2.1-2.7c-1.2-1.2-2.4-2.4-2.8-3.5c-0.4-1.2,0-2.2,1.9-2.8c4.7-1.6,3.5-4,1.5-7.1
		c-2.2-3.4-2-6,2.4-5.5L1157.4,586.5z M1146.9,660.9l-1.3,12.1c-2.9,2.3-4.3,2.4-0.2,4.4c1,0.5,1.8,0.9,1.9,1.5
		c0.1,0.8,1.1,1.5-3.2,2.2c-2.5,0.7,2.3,1.6,3.4,2.4l0,0c0.3,0.3,0.4,0.6,0.3,1c-0.1,0.2-0.4,0.5-0.8,0.6c-2.2,0.8-4.6-1-5.2,0.3
		c-2.4,5.7,6.9-0.7,7.9,2.4l-0.1,0.9l-3.4-0.8c-1,2-8.3,2.3-8.6-1.6l-0.5,4.7l12.5,1.3l11.2-112.4l-11.2-1.2l-11.9,106.6
		c0.9-2.2,5.9,0.1,8.9-1c0.1,0,0.2-0.1,0.2-0.1c-0.3-0.2-1-0.5-2.1-0.6c-1-0.1-5.3-0.5-5.5-2c0-0.3,0.1-0.6,0.4-0.8
		c0.4-0.4,1.2-0.7,2-0.8c12.8-1.9-5.1,0.1,2.7-7.5c2.4-4.4,1.7-10.8,2.6-16.2C1147.1,653.6,1149.6,657.7,1146.9,660.9L1146.9,660.9z
		 M1149.8,575.9l11.2,1.2l31.4-316.1l-7.3-0.8L1149.8,575.9z M1149.3,695l-12.6-1.3l-5.7,50.8l13.2,1.4L1149.3,695z"/>
	<path fill="#663300" d="M1215.7,359.6l30.1,491.2l-18.2,1l-24.1-491.6L1215.7,359.6z M1230.8,689.1c-3.5-1.8-5.9-1.3-3.7,1.1
		c14.7,16-9.5,5.4,1.5,13.3c1.4,1,2.8,2,2.9,2.9c0.2,1.9-2.2,2.2-3.5,3.6c-2.3,2.3-0.8,3.2,1.3,3.7c0.5,0.1,1,0.2,1.4,0.3
		c1,0.2,1.7,0.4,1.8,0.9c0,2.8-2.9,1.6-3.7,3l2.6,32.4l-4-33.8c-0.1-1.1,3.9-1.3,1.6-1.9c-2.9-0.8-6.3-2.8-3.3-5.9
		c1.1-1.1,4.9-1.8,4.8-2.1c-0.1-0.6-1.3-1.4-2.6-2.3c-1.3-0.9-2.8-2-3.3-3c-0.6-1.1-0.3-2.1,1.4-3c4.4-2.3,2.9-4.5,0.3-7.3
		c-2.7-3-2.9-5.6,1.5-5.8L1230.8,689.1z M1232.4,764.2l0.7,12.1c-2.5,2.7-3.8,3.1,0.5,4.4c1,0.3,1.9,0.6,2.1,1.1
		c0.2,0.7,1.3,1.4-2.8,2.7c-2.4,1.1,2.6,1.2,3.7,1.9l0,0c0.4,0.2,0.6,0.5,0.5,0.9c-0.1,0.3-0.3,0.5-0.7,0.8
		c-2.1,1.2-4.7-0.3-5.1,1.1c-1.5,6.1,6.7-1.8,8.2,1.2l0,0.9l-3.5-0.3c-0.7,2.2-7.8,3.6-8.7-0.2l0.2,4.7l12.6-0.7L1233,682l-11.2,0.6
		l5.2,107.1c0.6-2.4,5.8-0.8,8.6-2.4c0.1-0.1,0.2-0.1,0.2-0.1c-0.4-0.2-1.1-0.2-2.1-0.2c-1,0.1-5.3,0.4-5.7-1.1
		c-0.1-0.3,0-0.6,0.2-0.9c0.3-0.4,1-0.8,1.9-1c12.3-3.9-5.1,0.9,1.5-7.9c1.6-4.7,0-11,0-16.4C1231.3,757,1234.4,760.7,1232.4,764.2
		L1232.4,764.2z M1221.7,679.9l11.2-0.6l-19.4-317.1l-7.3,0.4L1221.7,679.9z M1240.1,797.5l-12.6,0.7l2.5,51l13.3-0.7L1240.1,797.5z
		"/>
	<path fill="#663300" d="M371.4,99.8c2.6-1.3,5.2-2.2,6.8-2.3c1.7,0,3.8,0.1,6.1,1.1c2.3,0.9,4.8,2.6,7.2,5.6l0.6,0.7l-0.6,0.8
		c-5.7,7.9-12.3,9.2-20.4,5.4c-3.3-1.6-5.9-3.3-8.6-5.6C365.3,103,368.1,101.3,371.4,99.8L371.4,99.8z M478,39.2
		c18.4,0.8,31.4,6,34.4,15.5c3,9.5-4.4,21.2-19,32.5c-30.9,24-87.1,41.9-126.2,40.3c-18.4-0.8-31.4-6-34.4-15.5
		c-3-9.5,4.5-21.2,19.1-32.6C382.7,55.5,438.9,37.5,478,39.2L478,39.2z M484.3,34.3c20.5,0.8,34.9,6.6,38.2,17.1
		c7.3,23-14.9,72-29.3,90.8c3.8,7.9-3.1,16.3-8.7,21.3c-15.7,13.9-45.1,23.2-65.9,21c-7.4-0.8-18-3.6-19.4-12.3
		c-22.6-6.9-69.2-33.9-76.5-57c-3.4-10.5,5-23.5,21.2-36.1C378.2,52.4,440.8,32.4,484.3,34.3L484.3,34.3z M484.2,36.7
		c-42.9-1.8-105,18.1-138.9,44.4c-15.4,11.9-23.4,24-20.4,33.4c7.2,22.7,54.1,49.1,76.5,55.8c0.8,8.6,10.1,11,17.4,11.7
		c20.1,2.1,48.9-7,64.1-20.4c5.7-5,11.7-12.1,7.4-19.6c14.3-18.4,37.2-67.1,29.9-89.8C517.2,42.7,503.7,37.5,484.2,36.7L484.2,36.7z
		 M339.7,117.6c3.8-8.5,13.3-17.7,26.7-26.4c29.1-18.8,72.1-32.5,106.6-33.9c15.9-0.7,28.9,1.4,36.9,6c0.8-2.8,0.9-5.5,0.1-7.9
		c-2.7-8.4-14.8-13.1-32.2-13.7c-38.5-1.6-94.1,16.2-124.5,39.7c-13.8,10.7-20.9,21.4-18.2,29.8
		C335.9,113.7,337.5,115.8,339.7,117.6L339.7,117.6z M509.1,65.7c-7.5-4.6-20.2-6.6-35.9-5.9c-34.1,1.4-76.7,15-105.4,33.6
		c-13.3,8.6-22.5,17.7-26,25.8c5.7,3.5,14.6,5.5,25.4,5.9c25.9,1.1,59.6-6.6,88.2-19c0.9-11.5,4.1-19.3,12.2-28.6
		c5.7-6.6,16.8-10.1,25.2-11.5c0.1,5.5-0.2,10.3-1.8,15.6c-0.7,2.5-1.6,4.5-2.6,6.4c1.2-0.8,2.4-1.7,3.5-2.6
		C500.4,78.6,506.5,71.8,509.1,65.7L509.1,65.7z M457.9,104.9c8.9-4,17.3-8.4,24.6-13.1c2.9-3.6,4.6-6.3,6-11
		c1.1-3.7,1.7-7.7,1.7-11.9c-6.7,1.4-16.3,4.9-20.9,10.1C462.5,87.1,458.9,94.4,457.9,104.9L457.9,104.9z M454.8,99.7
		c0.5,2.2-1.4,4-3.4,4.4c-2,0.5-4.4-0.3-4.9-2.5c-0.5-2.2,1.4-4,3.4-4.4C451.9,96.7,454.3,97.5,454.8,99.7L454.8,99.7z M452.4,100.2
		c-0.2-0.7-1.4-0.8-2-0.6c-0.6,0.1-1.7,0.7-1.5,1.4c0.2,0.7,1.4,0.8,2,0.7C451.5,101.5,452.6,101,452.4,100.2L452.4,100.2z
		 M407.5,114.8c0.5,2.2-1.4,4-3.3,4.4c-2,0.5-4.4-0.3-4.9-2.5c-0.3-1.1,0.1-2.1,0.8-2.9c-4.7,1.9-9.7,2.6-16.4,2.7
		c-5.4,0.1-9-0.4-14-2.5c-5.1-2.1-9.1-4.9-13.2-8.5c6.4-5.6,16.2-12,24.9-12.2c13.5-0.3,21.9,2.6,32.6,10.7c-3.7,3.6-7,6.2-10.5,8.1
		C405.2,112,407.1,112.9,407.5,114.8L407.5,114.8z M405.1,115.3c-0.1-0.7-1.4-0.8-2-0.7s-1.6,0.7-1.5,1.5c0.2,0.7,1.4,0.8,2,0.7
		C404.2,116.6,405.3,116.1,405.1,115.3L405.1,115.3z M428.1,101.6c0.5,2.2-1.4,4-3.3,4.4c-2,0.5-4.4-0.3-4.9-2.5
		c-0.5-2.2,1.4-4,3.4-4.4C425.2,98.7,427.6,99.5,428.1,101.6L428.1,101.6z M425.7,102.2c-0.2-0.7-1.4-0.8-2-0.7
		c-0.6,0.1-1.6,0.7-1.5,1.4c0.2,0.7,1.4,0.8,2,0.7C424.8,103.5,425.9,102.9,425.7,102.2L425.7,102.2z M441.5,92.3
		c0.5,2.2-1.3,4-3.3,4.4c-2,0.5-4.4-0.3-4.9-2.5c-0.5-2.2,1.4-4,3.4-4.4C438.6,89.3,441,90.1,441.5,92.3L441.5,92.3z M439.1,92.8
		c-0.2-0.7-1.4-0.8-2-0.7c-0.6,0.1-1.6,0.7-1.5,1.4c0.2,0.7,1.4,0.8,2,0.7C438.2,94.1,439.3,93.6,439.1,92.8L439.1,92.8z
		 M456.7,85.1c0.5,2.2-1.4,4-3.3,4.4c-2,0.5-4.4-0.3-4.9-2.5c-0.5-2.2,1.4-4,3.3-4.4C453.8,82.1,456.2,82.9,456.7,85.1L456.7,85.1z
		 M454.3,85.7c-0.1-0.7-1.4-0.8-2-0.7c-0.6,0.1-1.6,0.7-1.5,1.4c0.2,0.7,1.4,0.8,2,0.7C453.4,87,454.5,86.4,454.3,85.7L454.3,85.7z
		 M433.2,89.3c0.5,2.2-1.4,4-3.3,4.4c-2,0.5-4.4-0.3-4.9-2.5c-0.5-2.2,1.4-4,3.3-4.4C430.2,86.4,432.7,87.2,433.2,89.3L433.2,89.3z
		 M430.8,89.9c-0.1-0.7-1.4-0.8-2-0.7c-0.6,0.1-1.6,0.7-1.5,1.5c0.2,0.7,1.4,0.8,2,0.6C429.8,91.2,430.9,90.6,430.8,89.9L430.8,89.9
		z M458.7,73.2c0.5,2.2-1.4,4-3.4,4.4c-2,0.5-4.4-0.3-4.9-2.5c-0.5-2.2,1.4-4,3.4-4.4C455.7,70.2,458.1,71,458.7,73.2L458.7,73.2z
		 M456.2,73.8c-0.2-0.7-1.4-0.8-2-0.7c-0.6,0.1-1.7,0.7-1.5,1.4c0.2,0.7,1.4,0.8,2,0.7C455.3,75.1,456.4,74.5,456.2,73.8L456.2,73.8
		z M478.8,73.8c-2.6,1.2-5,2.6-6.1,3.8c-1.1,1.3-2.3,3-3,5.4c-0.7,2.3-1,5.3-0.2,9.1l0.2,0.9l0.9,0.1c9.7,0.6,14.9-3.7,17-12.4
		c0.9-3.5,1.2-6.6,1.2-10.2C485.2,71.2,482.1,72.3,478.8,73.8L478.8,73.8z M478.7,82.7c1.7-1,2.7-3.4,2.1-5.4
		c-0.2-0.6-0.4-1-0.8-1.4c2.2-1,4.5-1.9,6.2-2.4c-0.1,1.9-0.5,4.3-1,6.6c-0.6,2.5-1.1,4.2-2.7,6.2c-0.7-1.7-2.7-2.4-4.4-2.3
		c-2,0.2-4.1,1.7-3.9,4c0.1,1,0.7,1.9,1.6,2.4c-1.2,0.2-2.5,0.3-4.1,0.3c-0.4-2.9-0.2-5.1,0.3-7c0.4-1.4,1-2.5,1.7-3.4
		c0,0.2,0,0.3,0.1,0.5C474.5,83.1,476.8,83.9,478.7,82.7L478.7,82.7z M476.7,87.7c-0.1-0.7,1.1-1.2,1.7-1.3c0.6,0,1.8,0.2,1.9,0.9
		c0.1,0.7-1.1,1.2-1.7,1.2C478,88.7,476.8,88.5,476.7,87.7L476.7,87.7z M476.2,80.2c-0.2-0.9,0.2-2.1,1-2.6c0.6-0.3,1-0.1,1.2,0.5
		c0.3,0.9-0.2,2.1-1,2.6C476.9,81,476.4,80.8,476.2,80.2L476.2,80.2z M433.6,77c0.5,2.2-1.4,4-3.3,4.4c-2,0.4-4.4-0.3-4.9-2.5
		c-0.5-2.2,1.4-4,3.4-4.4C430.7,74,433.1,74.8,433.6,77L433.6,77z M431.2,77.5c-0.2-0.7-1.4-0.8-2-0.6c-0.6,0.1-1.6,0.7-1.5,1.4
		c0.2,0.7,1.4,0.8,2,0.7C430.3,78.8,431.4,78.3,431.2,77.5L431.2,77.5z M414,91.1c-0.2,2.2-2.6,3.3-4.5,3.1c-2-0.2-4.1-1.7-3.9-4
		c0.2-2.2,2.5-3.3,4.5-3.1C412.1,87.4,414.2,88.9,414,91.1L414,91.1z M411.5,90.9c0.1-0.8-1.1-1.2-1.7-1.3c-0.6-0.1-1.8,0.1-1.9,0.9
		c-0.1,0.7,1.1,1.2,1.6,1.3C410.2,91.9,411.4,91.7,411.5,90.9L411.5,90.9z M360.2,105.5c3.3,2.7,6.8,4.8,10.3,6.2
		c4.8,2,8,2.4,13.1,2.3c6.9-0.1,15.9-0.2,26.4-9.7c-9.2-6.7-17.5-8.8-28.7-8.5C374.3,95.9,365.5,101.2,360.2,105.5L360.2,105.5z
		 M378.3,105.3c-1.9,0.7-4.3-0.1-5.5-1.8c-0.3-0.5-0.6-1-0.6-1.5c-2.2,1-4.3,2.3-5.8,3.3c1.6,1.1,3.7,2.4,5.7,3.4
		c2.3,1.1,3.9,1.8,6.5,1.8c-0.9-1.6-0.2-3.6,1-4.8c1.4-1.4,3.9-2.1,5.5-0.5c0.7,0.7,1,1.7,0.9,2.8c0.9-0.8,1.9-1.7,2.8-3
		c-2-2.1-3.8-3.4-5.6-4.1c-1.4-0.5-2.6-0.8-3.7-0.8c0.1,0.1,0.2,0.2,0.3,0.4C381.2,102.3,380.5,104.6,378.3,105.3L378.3,105.3z
		 M383.5,106.9c-0.6-0.5-1.6,0.1-2,0.5c-0.4,0.4-1,1.5-0.5,2c0.6,0.5,1.6-0.1,2-0.5C383.4,108.5,384,107.4,383.5,106.9L383.5,106.9z
		 M377.9,101.8c-0.5-0.8-1.7-1.2-2.6-0.9c-0.6,0.2-0.8,0.7-0.4,1.3c0.5,0.8,1.8,1.2,2.6,0.8C378.1,102.8,378.3,102.3,377.9,101.8
		L377.9,101.8z"/>
	<path fill="#663300" d="M1095.5,145.5c18.1-3.8,31.9-2,37.2,6.5c5.3,8.5,0.9,21.7-10.4,36.2c-24,30.8-74.1,62.1-112.4,70.1
		c-18.1,3.8-31.9,1.9-37.2-6.5c-5.2-8.4-0.9-21.7,10.5-36.2C1007.2,184.8,1057.3,153.6,1095.5,145.5L1095.5,145.5z M1040.7,201.2
		c-12.6,6-38.5,22.5-40.5,37.3c-2.1,15.1,30,2.3,35.3-0.2c0.6-0.3,70.8-39.2,49.1-35.8c-5.8,0.9-24.8,15.6-40.1,19.6
		c-0.8,0.2-45.3,19-28,3.8c11.9-10.4,19.3-14.6,31.4-24.1c0.4-0.3,0.8-0.7,1.3-1c11.7-9.1,24.5-15.4,37.9-21
		c23.6-9.7-20.3,22.1-22,23.2c-8.6,5.6-13.1,11.1,1.2,2.2c0.3-0.2,0.7-0.5,1-0.7c1.8-1.1,43.2-25.8,35.9-29.5
		c-8.4-4.2-51.6,20.3-61.6,25.6C1041.4,200.9,1041.4,200.9,1040.7,201.2L1040.7,201.2z M1101.9,189.4c-1.4,0.6-7.3,4.7-6.5,5.6
		c1.2,1.3,10.1-4.8,9.8-5.8C1104.9,188.1,1103,189,1101.9,189.4L1101.9,189.4z M1044.9,208.7c-6.5,2.9-9.4,4.2-10.9,10
		c-0.5,2,26.4-14.6,14.7-11.8c-0.3,0.1-0.9,0.4-1.5,0.5C1046.8,207.4,1045.2,208.6,1044.9,208.7L1044.9,208.7z M1100.4,139.2
		c20.1-4.2,35.4-2.2,41.3,7.2c12.8,20.5,3.3,73.4-6.1,95.2c5.6,6.7,1,16.6-3.2,22.7c-11.8,17.3-38,33.6-58.7,36.6
		c-7.3,1.1-18.3,0.9-21.8-7.1c-23.7-1.2-75.4-15.8-88.2-36.4c-5.8-9.3-0.9-24,11.7-40.2C1002.1,182.9,1057.8,148.1,1100.4,139.2
		L1100.4,139.2z M1101,141.6c-42,8.9-97.3,43.3-123.7,77.2c-11.9,15.3-16.7,29-11.5,37.4c12.6,20.2,64.5,34.3,87.8,35.3
		c2.9,8.2,12.5,8.1,19.8,7.1c20-2.9,45.6-18.9,57-35.6c4.3-6.2,8.4-14.7,2.3-20.9c9.3-21.4,19.5-74.2,6.9-94.4
		C1134.4,139.3,1120,137.6,1101,141.6L1101,141.6z M980.9,255.6c1.6-9.1,8.5-20.4,19.4-32.2c23.5-25.4,61.8-49.3,94.9-59.2
		c15.2-4.5,28.3-5.8,37.2-3.2c0.1-2.9-0.5-5.5-1.9-7.7c-4.7-7.5-17.5-9-34.5-5.4c-37.7,7.9-87.2,38.9-110.9,69.3
		c-10.7,13.7-14.9,25.9-10.3,33.4C976.2,252.7,978.2,254.4,980.9,255.6L980.9,255.6z M1132.2,163.5c-8.4-2.6-21.2-1.4-36.3,3.1
		c-32.7,9.8-70.6,33.4-93.9,58.5c-10.7,11.6-17.5,22.6-18.8,31.4c6.4,2,15.4,1.7,26.1-0.5c37.6-7.9,86.8-38.4,110.9-69.2
		C1127,178.2,1131.2,170.1,1132.2,163.5L1132.2,163.5z"/>
	<path fill="#663300" d="M115.4,121.3c2.7,1.1,5.2,2.3,6.3,3.5c1.2,1.2,2.4,2.9,3.3,5.2c0.9,2.3,1.3,5.3,0.8,9.1l-0.1,0.9l-0.9,0.1
		c-9.7,1.1-15.1-2.9-17.7-11.4c-1-3.5-1.6-6.5-1.7-10.1C108.9,119,112,120,115.4,121.3L115.4,121.3z M240,160.5
		c13.2,15.7,18.6,30.2,13.1,39.8c-12,21-63.2,37.5-86.8,39.6c-3.3,8.1-14.2,8.7-21.6,7.9c-20.8-2.2-47.6-17.6-60-34.4
		c-4.4-6-9.4-15.7-4.1-22.6c-10.1-21.4-21.6-73.9-9.6-94.9c5.5-9.6,20.8-12.2,41-8.7C155,94.4,212,127.1,240,160.5L240,160.5z
		 M80.9,110.1c8.9-2.9,22.1-2.1,37.6,1.9c33.5,8.7,72.6,31.2,97,55.8c11.2,11.3,18.4,22.2,20.4,31.2c2.6-1.3,4.6-3,5.9-5.3
		c4.4-7.6-0.3-19.7-11.5-33c-24.8-29.5-75.5-58.5-113.4-65.1c-17.1-2.9-29.9-0.9-34.3,6.7C81.2,104.5,80.7,107.2,80.9,110.1
		L80.9,110.1z M233.5,200c-1.7-8.6-8.7-19.3-19.8-30.5c-24.1-24.2-62.9-46.5-95.9-55.1c-15.3-4-28.2-4.7-36.6-1.8
		c1.3,6.6,5.7,14.4,12.8,22.8c16.7,19.8,45.1,39.5,73.5,52.2c9.1-7.1,17-10,29.4-10.4c8.7-0.2,18.8,5.6,25.5,10.8
		c-4,3.8-7.8,6.8-12.7,9.2c-2.4,1.2-4.4,1.9-6.5,2.4c1.5,0.3,2.9,0.6,4.3,0.8C218.2,202.3,227.2,202.2,233.5,200L233.5,200z
		 M170,188.7c9,3.9,17.8,7,26.4,9.3c4.6-0.2,7.8-0.9,12.2-3c3.5-1.7,6.9-4,10-6.8c-5.5-4-14.6-8.7-21.6-8.6
		C186.3,180,178.4,182.3,170,188.7L170,188.7z M171.8,182.8c-1.3,1.8-3.8,1.7-5.5,0.5c-1.7-1.2-2.8-3.5-1.5-5.4
		c1.3-1.8,3.8-1.6,5.5-0.5C172,178.7,173.1,181,171.8,182.8L171.8,182.8z M169.8,181.4c0.4-0.6-0.3-1.6-0.8-1.9
		c-0.5-0.3-1.6-0.7-2.1-0.1c-0.5,0.6,0.3,1.6,0.8,1.9C168.2,181.7,169.3,182.1,169.8,181.4L169.8,181.4z M128.7,158.1
		c-1.3,1.8-3.8,1.6-5.5,0.5c-1.7-1.2-2.7-3.5-1.5-5.3c0.7-0.9,1.6-1.3,2.7-1.4c-4.5-2.1-8.5-5.4-13.1-10.3
		c-3.7-3.9-5.8-6.9-7.6-12.1c-1.9-5.2-2.5-10-2.7-15.5c8.4,1,19.7,3.8,25.8,10.1c9.3,9.7,12.9,17.9,14.1,31.3
		c-5.2-0.3-9.3-1-13.1-2.3C129.2,154.6,129.8,156.5,128.7,158.1L128.7,158.1z M126.7,156.7c0.4-0.6-0.4-1.6-0.9-1.9
		c-0.5-0.3-1.6-0.8-2.1-0.1c-0.4,0.6,0.3,1.6,0.8,1.9C125.1,157,126.3,157.4,126.7,156.7L126.7,156.7z M152.3,164.5
		c-1.3,1.8-3.8,1.6-5.5,0.5c-1.7-1.2-2.7-3.5-1.5-5.3c1.3-1.8,3.8-1.6,5.5-0.5C152.5,160.3,153.6,162.7,152.3,164.5L152.3,164.5z
		 M150.3,163.1c0.4-0.6-0.4-1.6-0.8-1.9c-0.5-0.3-1.7-0.8-2.1-0.1c-0.4,0.6,0.3,1.6,0.8,1.9C148.7,163.3,149.8,163.7,150.3,163.1
		L150.3,163.1z M168.3,168c-1.3,1.8-3.8,1.6-5.5,0.5c-1.7-1.2-2.8-3.5-1.5-5.3c1.3-1.8,3.8-1.7,5.5-0.5S169.6,166.2,168.3,168
		L168.3,168z M166.3,166.6c0.4-0.6-0.3-1.6-0.8-1.9c-0.5-0.3-1.6-0.7-2.1-0.1c-0.5,0.6,0.3,1.6,0.8,1.9
		C164.7,166.9,165.8,167.3,166.3,166.6L166.3,166.6z M183.8,174.4c-1.3,1.8-3.8,1.7-5.5,0.5s-2.7-3.5-1.5-5.4
		c1.3-1.8,3.8-1.6,5.5-0.5C184,170.2,185.1,172.6,183.8,174.4L183.8,174.4z M181.8,173c0.5-0.6-0.3-1.6-0.8-1.9
		c-0.5-0.3-1.6-0.7-2.1-0.1c-0.4,0.6,0.3,1.6,0.8,1.9C180.2,173.2,181.4,173.6,181.8,173L181.8,173z M164.8,159.9
		c-1.3,1.9-3.8,1.7-5.5,0.5c-1.6-1.2-2.7-3.5-1.5-5.3c1.3-1.9,3.8-1.7,5.5-0.5C165,155.7,166.1,158.1,164.8,159.9L164.8,159.9z
		 M162.8,158.5c0.4-0.6-0.4-1.5-0.8-1.9c-0.5-0.3-1.6-0.7-2.1-0.1c-0.4,0.6,0.4,1.6,0.8,1.9C161.2,158.7,162.3,159.1,162.8,158.5
		L162.8,158.5z M193.9,167.8c-1.3,1.8-3.8,1.6-5.5,0.5c-1.7-1.2-2.7-3.5-1.5-5.3s3.8-1.6,5.5-0.5S195.2,165.9,193.9,167.8
		L193.9,167.8z M191.9,166.4c0.5-0.6-0.3-1.6-0.8-1.9c-0.5-0.3-1.6-0.7-2.1-0.1c-0.4,0.6,0.3,1.6,0.8,1.9
		C190.3,166.6,191.5,167,191.9,166.4L191.9,166.4z M207.1,183.1c-2.7-1.1-5.4-2-6.9-1.9c-1.7,0-3.7,0.3-6,1.4
		c-2.2,1-4.6,2.9-6.9,5.9l-0.6,0.8l0.6,0.7c6.1,7.6,12.8,8.5,20.6,4.2c3.2-1.7,5.7-3.6,8.3-6.1C213.3,186,210.4,184.5,207.1,183.1
		L207.1,183.1z M200.4,189.1c2,0.6,4.3-0.3,5.4-2.1c0.3-0.5,0.5-1,0.5-1.5c2.2,0.9,4.4,2.1,5.9,3c-1.5,1.2-3.5,2.6-5.6,3.7
		c-2.3,1.2-3.8,2-6.4,2.1c0.8-1.6,0.1-3.6-1.2-4.8c-1.5-1.4-4-1.9-5.5-0.2c-0.7,0.8-0.9,1.8-0.7,2.8c-0.9-0.7-2-1.6-3-2.9
		c1.8-2.2,3.7-3.6,5.4-4.4c1.3-0.6,2.6-0.9,3.7-1.1c-0.1,0.1-0.2,0.3-0.3,0.5C197.3,186.2,198.2,188.4,200.4,189.1L200.4,189.1z
		 M195.4,190.9c0.5-0.6,1.6,0,2.1,0.4c0.4,0.4,1.1,1.4,0.6,2c-0.5,0.6-1.6,0-2.1-0.4C195.6,192.5,194.9,191.5,195.4,190.9
		L195.4,190.9z M200.7,185.5c0.5-0.8,1.7-1.3,2.6-1c0.7,0.2,0.8,0.7,0.5,1.2c-0.5,0.8-1.7,1.3-2.6,1
		C200.5,186.5,200.3,186.1,200.7,185.5L200.7,185.5z M174.2,151.9c-1.3,1.8-3.8,1.6-5.5,0.5c-1.7-1.2-2.8-3.5-1.5-5.3
		c1.3-1.8,3.8-1.6,5.5-0.5C174.5,147.7,175.5,150,174.2,151.9L174.2,151.9z M172.2,150.5c0.4-0.6-0.3-1.6-0.8-1.9
		c-0.5-0.3-1.6-0.8-2.1-0.1c-0.5,0.6,0.3,1.6,0.8,1.9C170.6,150.7,171.8,151.1,172.2,150.5L172.2,150.5z M150.5,146.9
		c-1.8,1.3-4.2,0.4-5.4-1.2c-1.2-1.6-1.5-4.2,0.3-5.5c1.7-1.4,4.2-0.4,5.4,1.2C152,143.1,152.3,145.6,150.5,146.9L150.5,146.9z
		 M149,145c0.6-0.5,0.2-1.6-0.2-2.1c-0.3-0.5-1.3-1.2-1.9-0.8c-0.6,0.5-0.1,1.6,0.2,2.1C147.4,144.7,148.4,145.4,149,145L149,145z
		 M103.7,117c0.2,4.2,1.1,8.2,2.4,11.8c1.7,4.9,3.6,7.5,7.1,11.2c4.7,5,10.9,11.6,25,12.9c-1.3-11.3-5.4-18.9-13.1-26.9
		C120.2,121,110.4,118,103.7,117L103.7,117z M116,130.3c-1.8-1-2.9-3.3-2.4-5.2c0.1-0.6,0.4-1,0.7-1.5c-2.2-0.9-4.6-1.6-6.3-2
		c0.2,1.9,0.7,4.3,1.4,6.5c0.7,2.5,1.3,4.1,3.1,6c0.6-1.7,2.5-2.6,4.2-2.6c2,0.1,4.2,1.5,4.1,3.7c0,1-0.6,1.9-1.4,2.6
		c1.2,0.1,2.6,0.2,4.2,0c0.2-2.9-0.1-5.1-0.8-6.9c-0.5-1.4-1.2-2.4-1.9-3.4c0,0.2,0,0.4-0.1,0.6C120.2,130.3,118,131.3,116,130.3
		L116,130.3z M118.3,135.1c0-0.7-1.2-1.1-1.7-1.1c-0.6,0-1.8,0.2-1.8,1c0,0.8,1.1,1.2,1.7,1.2C117.1,136.1,118.2,135.9,118.3,135.1
		L118.3,135.1z M118.4,127.5c0.2-0.9-0.3-2.1-1.2-2.5c-0.6-0.3-1-0.1-1.2,0.6c-0.2,0.9,0.3,2.1,1.2,2.5
		C117.7,128.4,118.2,128.2,118.4,127.5L118.4,127.5z"/>
	<path fill="#663300" d="M294.9,485.6c18.2-3,32-0.6,36.9,8c4.9,8.7,0,21.7-11.9,35.8c-25.3,29.8-76.6,59-115.1,65.5
		c-18.2,3-32,0.6-36.9-8c-4.9-8.7,0-21.7,11.9-35.8C205.1,521.2,256.4,492.1,294.9,485.6L294.9,485.6z M237.9,538.9
		c-12.8,5.5-39.3,20.9-42,35.7c-2.7,15,29.9,3.6,35.3,1.2c0.6-0.2,72.4-36.3,50.6-33.8c-5.8,0.7-25.5,14.5-40.8,17.9
		c-0.8,0.2-46,17.1-28.1,2.7c12.3-9.9,19.9-13.8,32.4-22.8c0.4-0.3,0.9-0.6,1.3-0.9c12-8.6,25.1-14.4,38.7-19.3
		c24-8.8-21.1,21.2-22.9,22.2c-8.9,5.2-13.6,10.5,1.1,2.2c0.3-0.2,0.7-0.4,1-0.6c1.8-1,44.2-24,37.1-28
		c-8.2-4.5-52.4,18.2-62.5,23.1C238.6,538.7,238.6,538.7,237.9,538.9L237.9,538.9z M299.6,529.7c-1.4,0.6-7.5,4.4-6.7,5.3
		c1.2,1.3,10.3-4.4,10-5.4C302.6,528.5,300.6,529.3,299.6,529.7L299.6,529.7z M241.7,546.6c-6.7,2.7-9.6,3.8-11.3,9.5
		c-0.6,2,27-13.5,15.2-11.2c-0.2,0.1-0.9,0.4-1.5,0.5C243.7,545.4,242.1,546.5,241.7,546.6L241.7,546.6z M300.1,479.5
		c20.3-3.4,35.5-0.7,40.9,8.9c12,21,0.3,73.5-9.9,94.8c5.4,6.9,0.3,16.7-4.1,22.6c-12.5,16.8-39.3,32-60.2,34.2
		c-7.3,0.8-18.3,0.1-21.5-8c-23.6-2.1-74.7-18.9-86.6-39.9c-5.5-9.6,0-24.1,13.3-39.7C200,519.2,257.2,486.7,300.1,479.5
		L300.1,479.5z M300.5,481.9c-42.3,7.1-99,39.3-126.7,72.1c-12.6,14.8-17.9,28.3-13,36.9c11.8,20.7,63.1,36.9,86.3,38.8
		c2.6,8.3,12.2,8.6,19.5,7.9c20.1-2.1,46.4-17,58.4-33.2c4.5-6.1,9-14.3,3.2-20.7c10.2-21,22.5-73.3,10.7-94
		C334,481,319.7,478.7,300.5,481.9L300.5,481.9z M175.9,590.9c2-9.1,9.3-20.1,20.7-31.3c24.5-24.4,63.8-46.7,97.3-55.3
		c15.4-3.9,28.5-4.6,37.3-1.7c0.2-2.9-0.3-5.5-1.5-7.8c-4.4-7.7-17.2-9.7-34.3-6.8c-38,6.4-88.7,35.3-113.6,64.6
		c-11.3,13.3-16,25.3-11.7,33C171.3,587.9,173.3,589.6,175.9,590.9L175.9,590.9z"/>
	<path fill="#663300" d="M128.9,787.3c132.9,45.7,269.6,74.4,409.3,88.9c17.6-3.1,35.8-11.6,51.2-20.5
		c-170.5-16-336.8-52.8-498.8-108.4C100.6,762,114.4,777,128.9,787.3L128.9,787.3z M157,657.5c132.8,45.7,270,74.6,409.6,89
		c0.7,0.1,1.2,0.7,1.1,1.5c-4.5,38.7,4.6,74.1,26.6,106.2c0.5,0.6,0.3,1.5-0.4,1.9c-16.3,9.8-35.7,19.1-54.6,22.6
		c-0.8,4-1.7,8-3.2,11.9c-0.2,0.6-0.8,0.9-1.4,0.8c-150.9-17.9-265.2-40.5-409.4-90.5c-0.6-0.2-0.9-0.8-0.8-1.4
		c0.5-3.4,1.1-7.2,2.3-10.4c-15.3-11.1-30-27.3-40.2-43.2c-0.5-0.7-0.2-1.4,0.4-1.8c33.2-21.2,53.9-49.4,68.3-85.8
		C155.6,657.5,156.3,657.2,157,657.5L157,657.5z M157.2,660.3c-14.3,35.5-34.7,63.7-66.8,84.7h0.1c161.7,55,329.9,92.7,500.3,108.5
		c-21.1-31.7-29.9-66.6-25.7-104.6C426.1,734.5,289.4,705.7,157.2,660.3L157.2,660.3z M129,790c-1,2.7-1.6,5.8-2,8.7
		c143.4,49.7,257.2,72.2,407.1,90c1.2-3.3,2-6.7,2.6-10.1C397.2,864.1,261.8,835.2,129,790L129,790z"/>
	<path fill="#663300" d="M1180.4,105c75-17.7,147.6-40.3,219.6-67.3v2.6c-71,26.7-143.5,49.1-218.1,66.9c0.6,2.8,1.8,5.8,2.9,8.4
		C1264.5,97.1,1333,76.4,1400,51v2.6c-68,25.3-135.7,46-215.5,64.6c-0.6,0.1-1.1-0.2-1.4-0.7c-1.4-3.1-2.9-6.7-3.5-10.1
		c-18.9-1.2-40-7.1-57-15c-0.7-0.3-0.9-1.5-0.6-2.2c13.9-29.6,18-59.3,14.8-90.3h2.5c3.1,31-0.8,60-14,89h0
		C1218.6,67,1310,39.6,1400,5.6v2.6c-89,33.7-180.1,61.4-273.3,83.4C1143,98.7,1162.7,104.1,1180.4,105L1180.4,105z"/>
</g>
</svg>
